<?xml version="1.0" encoding="utf-8"?>
<!-- Generator: Adobe Illustrator 27.8.0, SVG Export Plug-In . SVG Version: 6.00 Build 0)  -->
<svg version="1.1" id="Layer_1" xmlns="http://www.w3.org/2000/svg" xmlns:xlink="http://www.w3.org/1999/xlink" x="0px" y="0px"
	 viewBox="0 0 1366 768" style="enable-background:new 0 0 1366 768;" xml:space="preserve">
<style type="text/css">
	.st0{fill:#FDFCFC;}
	.st1{fill:#E8E8E8;}
	.st2{fill:#DDDDDD;}
	.st3{fill:#F5F5F6;}
	.st4{fill:#E3E3E3;}
	.st5{fill:#CFB8D9;}
	.st6{fill:#FCF6EB;}
	.st7{fill:#FCFAF1;}
	.st8{fill:#D3EFF1;}
	.st9{fill:#F2C841;}
	.st10{fill:#985FA7;}
	.st11{fill:#4EBDCB;}
	.st12{fill:#2F3175;}
	.st13{fill:#ACDAD2;}
	.st14{fill:#2B2B64;}
	.st15{fill:#E8368D;}
</style>
<path class="st0" d="M1032.69,248.52c0,110.44-0.03,220.87,0.11,331.31c0.01,4.31-0.74,5.23-4.54,5.17
	c-18.11-0.29-36.23-0.13-54.35-0.13c-0.41-4.31-3.29-3.75-5.83-3.76c-13.23-0.06-26.46-0.09-39.69-0.13
	c-7.37-2.44-14.89-0.67-22.34-0.98c-2.54,0-5.08-0.01-7.61-0.01c0.19-2.5-0.52-3.99-3.04-3.95c-5.35,0.09-10.7,0.09-16.05,0
	c-2.55-0.04-3.17,1.53-3.01,3.99c-11.84-0.01-23.64,1.9-35.5,0.81c0.3-4.13-1.02-6.23-5.02-6.11c-7.01,0.22-14.04,0.22-21.06,0
	c-3.98-0.13-5.34,1.93-5.04,6.08c-32.15-0.03-64.3-0.06-96.45-0.09c-0.43-2.22-1.97-2.15-3.47-2.15c-5.53,0-11.07,0.03-16.6-0.02
	c-1.76-0.01-3.31,0.33-4.28,2.2c-2.09,0.42-2.54,2.02-2.28,4.12c-89.1,0-178.2-0.04-267.3,0.12c-3.8,0.01-4.55-0.85-4.54-5.16
	c0.13-136.89,0.13-273.78,0-410.67c0-4.31,0.75-5.16,4.54-5.16c201.86,0.13,403.72,0.12,605.59,0.12c7.76,0,7.76,0,7.76,8.82
	c-201.88,0-403.77,0-605.65,0c-10,0-10,0-9.86,11.32c-0.01,4.2-0.01,8.4-0.02,12.6c-0.01,7.14-0.02,14.28-0.03,21.42
	c0,7.13-0.02,14.25,0.01,21.38c0.01,1.43-0.32,4.01,0.63,4.06c5.5,0.24,8.54,5.9,13.4,7.34c7.63,2.26,15.4,0.88,23.11,1.23
	c5.15,0.23,9.52,0.79,9.13-8.46c-0.32-7.79,0.96-7.76-6.05-7.95c-2.37-0.07-5.99,1.44-6.52-2.54c-0.43-3.28,0.36-7.05,3.06-9.57
	c1.79-1.67,3.34-1.72,3.03,1.31c-0.58,5.72,2.26,6.34,6,5.79c5.41-0.8,8.5,0.82,7.46,7.94c-0.61,4.19,1.14,6.34,5.03,5.98
	c0.89-0.08,2.32-0.17,2.64,0.39c4.43,7.64,12.37,6.03,18.04,6.51c14.94,1.25,30.15,2.18,45.09-1.6c6.95-1.76,8.63,0.51,6.79,8.53
	c-3.37,5.45-1.93,11.69-2.23,17.64c-2.75,0.98-5.53,1.93-5.57,6.1c-3.69,0.08-7.38,0.18-11.07,0.22c-3.57,0.04-9.58,5.05-5.56,6.11
	c39.43,10.34,0.04,14.26-0.03,21.38c-0.03,3.24,1.04,4.76,4.04,5.43c6.79,1.51,13.61,0.61,20.41,1.06
	c-0.58,3.81-3.76,6.18-3.51,10.82c0.42,7.96-1.24,15.42-9.11,18.55c-1.33,0.53-2,2.01-2.27,3.39c-0.73,3.76-3.08,6.12-5.37,8.5
	c-7.87,8.15-16.34,15.38-25.87,20.87c-1.56,0.9-3.11,1.95-3.31,3.9c-0.59,5.68-3.93,9.81-6.03,14.64
	c-3.53,8.09,0.75,22.9,7.83,26.85c0.47,0.26,1.18,0.58,1.55,0.37c3.53-2.04,5.77,1.06,7.71,3.1c3.12,3.28,6.81,4.73,10.63,6.18
	c0.86,4.62,0.78,9.23-0.14,13.83c-2.88,0.68-1.85,3.24-1.95,5.25c-0.32,0.82-0.64,1.63-0.96,2.45c-2.7-0.43-3.93,0.75-3.35,3.93
	l0.03-0.06c-2.8-0.13-2.42,2.03-2.26,4.04c-0.49,0.68-0.97,1.36-1.46,2.03c-0.81,0.43-1.83,0.64-2.4,1.32
	c-2.75,3.3-4.36,9-10.11,5.24c-0.98-0.64-1.66,1.22-1.62,2.6c-1.34,1.65-2.69,3.3-4.03,4.95c-2.97-0.31-2.77,1.88-2.52,4.12
	c-0.23,0.33-0.45,0.66-0.68,0.99c-3.93-0.28-2.65,2.91-2.69,5.22c-3.56,10.44-4.59,21.1-2.13,32.06c-3.54,5.75-3.78,12.6-5.03,19.12
	l-0.13-0.02l0.13,0.01c-0.01,1.54-0.03,3.08-0.04,4.63c0.36,4.21-1.06,6.02-5.02,5.72c-4.75-0.36-9.54-0.1-14.32-0.05
	c-1.5,0.02-3.09,0.26-3.55,2.22c-0.4,1.69,0.3,2.81,1.98,2.86c43.64,0.01,87.28,0.03,130.92,0.04c3.79,1.17,7.59,1.21,11.37-0.04
	c20.98-0.02,41.95-0.04,62.93-0.06c1.66,1.36,3.57,0.77,5.37,0.77c113.01-0.05,226.03-0.13,339.04-0.22c1.66,0,3.33-0.01,4.97-0.23
	c1.19-0.16,2.09-1.09,2.09-2.5c0-1.45-1-2.27-2.15-2.45c-1.45-0.22-2.94-0.2-4.41-0.22c-13.11-0.11-26.22-0.2-39.32-0.29
	c1.19-1.58,2.37-3.16,3.57-4.73c4.52-5.87,2.32-16.04-4.04-18.71c-1.95-0.82-3.14,0.36-4.19,1.96c-1.6-0.01-2.45,0.78-2.25,2.71
	l0.03-0.03c-1.57-0.17-3.09,0.26-3.12,2.25c-0.03,2.13,0.93,3.86,3.23,3.77c0.11,1.63,0.21,3.27,0.32,4.9
	c-3.33,0.21-4.21-2.81-4.87-5.4c-0.53-2.07-1.05-3.36-3.06-3.27c-0.07-0.81-0.13-1.62-0.2-2.43c2.35-0.39,3.24-1.93,2.77-4.53
	c0.05-0.57,0.11-1.14,0.16-1.7c1.16-1.16,1.04-2.19-0.47-2.5c-2.74-0.56-5.49-0.15-7.94,1.26c-2.54,1.46-4.41,0.77-6.13-1.47
	c0.04-2.91,0.08-5.82,0.12-8.73c6.49-0.65,13.29,1.65,21.14-2.87c-8.07-1.8-14.53-3.24-20.99-4.68
	c-5.05-8.87-11.87-14.43-21.43-14.94c-2.46-0.01-4.91-0.02-7.37-0.03c-1.21-1.94-1.85-1.13-2.3,0.61c-1.82,0.64-3.64,1.29-5.45,1.93
	c-1.4-2.02-1.96-0.97-2.3,0.82c-4.92,2.24-1.32,5.61-0.89,8.56c-0.77,5.24,2.4,7.84,5.47,10.5l-0.04-0.05
	c0,1.25,0.18,2.38,1.56,2.48c1.07,0.08,1.46-0.78,1.72-1.76c0.73-0.18,1.46-0.36,2.2-0.54c1.95,0.51,2.9,4.21,5.62,2.28
	c1.44,0.24,2.88,0.49,4.32,0.73c0.46,2.11,1.97,2.06,3.38,1.97c2.13-0.13,3.32,0.93,3.65,3.3c-0.12,0.58-0.25,1.17-0.37,1.75
	c-1.79,0.18-2.25,1.4-1.92,3.22c0.12,1.82-0.67,3.15-1.81,4.28c-0.91,0.01-1.82,0.03-2.73,0.04c0.29-2.5,0.58-5,0.86-7.5
	c1.65-1.96,0.34-2.44-1.09-2.52c-3.93-0.23-7.25,1.45-10.08,4.48c-0.39-0.06-0.78-0.12-1.17-0.19c-1.4-5.44-2.3-5.61-6.47-1.24
	c-0.74,0.16-1.48,0.32-2.21,0.48c-0.61-3.06-2.65-3.39-4.91-3.33c-2.62-2.18-3.54-5.77-5.46-8.52c-2.19-3.13-3.81-3.21-5.54,0.76
	c-4.16,9.51-2.39,21.9,4.42,28.95c2.44,2.52,4.82,5.11,7.23,7.66c-25.23-0.06-50.45-0.11-75.67-0.17c-0.02-2.3,0.56-4.9-0.18-6.85
	c-2-5.29,0.37-12.94-6.35-15.73c2.37-5.19,0.46-10.95,1.58-16.41c0.34-1.66-0.76-5.74-4-6.29c-1.42-2.98-2.83-5.96-4.25-8.94
	c-0.65-6.87-4.92-0.3-6.86-2.38c-1.69-4.72-5.01-8.57-5.73-13.8c2.21-0.88,6.46,1.65,6.41-2.02c-0.05-3.53-4.23-1.16-6.52-1.78
	c-0.34-0.09-0.73,0.05-1.09,0.08c-1.03-4.32-1.87-8.65-0.27-13.05c4.35,1.69,8.63,3.71,13.41,2.82c15.12-2.84,29.88,0.79,44.63,3.56
	c10.49,1.97,20.8,5.89,31.52,5.06c5.02-0.39,9.3-1.39,12.43,4.5c0.98,1.85,3.61,1.58,5.58,2.12c9.75,2.68,19.42-0.31,29.12-0.08
	c11.53,0.28,22.22-3.7,32.08-9.65c4.86-2.93,10.72-6.92,10.48-15.24c-0.16-5.46,0.73-10.81,1.09-16.21
	c0.58-8.59-0.18-9.16-7.88-9.34c-2.59-0.06-5.89,1.12-6.44-3.69c3.55,0.2,7.76,0.41,9.28-3.57c1.5-3.93,3.88-8.02,2.9-12.84
	c0-42.42,0-84.85,0-127.27c0-1.25,0-2.49,0-3.74c0.01-7.23,0.03-14.46,0.01-21.69c-0.01-1.98,0.48-4.35-2.19-4.79
	c-2.03-1.43-2.99-4.37-5.56-5.03c0.3-0.74,0.42-1.76,0.93-2.16c4.47-3.6,24.2-1.89,28.13,2.39c1.26,1.37,2.71,1.98,4.41,2.3
	C1011.56,253.14,1022.18,251.84,1032.69,248.52z M826.26,493.03c3.81,3.53,8.79,4.16,12.95,6.74c7.59,4.69,7.9,4.44,12.1-3.91
	c2.44-4.86,1.11-7.2-2.79-9.02c-5.43-2.52-10.62-5.82-16.58-6.59c-1.36-3.33-4.69-2.85-6.93-4.58c-5.84-4.52-7.27-3.75-10.62,2.94
	c-2.48,4.95-2.1,8.12,2.63,10.72C820.01,490.98,822.93,492.58,826.26,493.03z M840.95,524.54c-5.05,2.34-8.52,5.27-3.39,11.5
	c0.36,0.43,0.57,1.09,0.71,1.68c0.54,2.27,1.26,5.01,3.46,4.96c2-0.04,4.14-1.49,4.67-4.36c7.94-3.01,14.87-8.9,23.19-10.76
	c5.37-1.2,5.76-3.82,3.21-8.92c-3.9-7.81-4.99-8.46-12.46-4.46C853.88,517.64,847.42,521.09,840.95,524.54z"/>
<path class="st1" d="M417.33,218.28c0.01-7.14,0.02-14.28,0.03-21.42c20.6,0.98,41.19-1.71,61.79-0.04
	c5.14,0.42,10.16-1.49,15.38-1.29c17.77,0.65,35.56,1.37,53.33,1.2c12.88-0.12,25.76-1.87,38.65-1c8.41,0.57,16.77,4.06,25.17,2.15
	c7.13-1.62,14.04-2.5,21.23-1.07c2.32,0.46,4.58,2.03,7.03,1.16c9.63-3.39,19.58-1.49,29.37-2.26c13.44-1.06,26.87,0.67,40.31,1.26
	c3.12,0.14,6.12-0.62,9.26-0.52c14.02,0.43,28.09,0.94,42.07,0.02c11.25-0.74,22.36-1.62,33.47,1.01c1.6,0.38,3.31,0.76,4.9,0.52
	c10.03-1.55,20.09-2.66,30.2-2.31c11.59,0.4,23.19,2.14,34.76,1.06c7.54-0.71,15.14-2.05,22.57-0.89c9.41,1.48,18.77,0.63,28.15,1
	c3.11,0.12,6.32-0.88,9.28-0.79c14.69,0.42,29.38-0.71,44.03,0.03c5.48,0.28,11.13,1.4,16.47,0.52c7.02-1.16,13.97-0.82,20.95-0.95
	c9.05-0.16,18.1-0.04,27.16-0.04c0,9.24,0,18.48,0,27.71c-1.29-0.01-2.62,0.19-3.88-0.05c-9.16-1.8-18.24-0.97-27.46-0.24
	c-11.76,0.94-23.7,0.92-35.43-0.27c-9.54-0.97-18.9,0.07-28.33,0.28c-12.55,0.27-25.11,0.94-37.63-0.3c-7.37-0.73-14.64-0.4-22-0.04
	c-9.49,0.46-18.84,3.03-28.55,1.02c-7.72-1.6-15.76-1.5-23.66-1.54c-7.43-0.04-14.87,0.94-22.31,1.09
	c-10.16,0.21-20.33,0.1-30.5,0.02c-3.29-0.02-5.9,0.75-6.44,5.07c-1.91-0.21-4.42-2.34-4.67,2.3c-0.1,1.95-1.45,2.67-3.28,2.04
	c-5.37-1.85-10.86-0.38-16.28-0.67c-11.18-0.59-22.36,0.31-33.49,0.55c-9.19,0.19-18.78-0.19-27.77,3.52
	c-1.41,0.58-2.97,1.46-3.78-0.71c-0.76-2.04,0.84-3.03,2.02-3.92c1.16-0.87,3-0.79,2.95-3.11c1.41-5.1,0.27-6.83-4.37-6.23
	c-7.96,1.03-16.19,2.62-23.89,0.89c-14.11-3.18-28.07-0.91-42.09-0.94c-22.06-0.05-44.12-0.13-66.18,0.03
	c-12.42,0.09-24.89,1.72-37.22,0.72c-12.74-1.03-25.42-0.15-38.11-0.77c0-3.56,0.06-7.13-0.02-10.69c-0.03-1.35,0.58-3.28-1.11-3.76
	c-1.41-0.4-2.18,1.28-3.07,2.27c-2.16,2.41-1.1,5.54-1.36,8.37c-3.15,0.33-6.17-0.25-9.13-1.46c-4.51-1.85-9.72-4.17-13.83-1.85
	C433.91,219.53,425.61,217.83,417.33,218.28z"/>
<path class="st2" d="M417.38,184.26c-0.13-11.32-0.13-11.32,9.86-11.32c201.88,0,403.77,0,605.65,0c0,4.2,0,8.4,0,12.6
	c-7.69,3.16-15.6,0.96-23.41,1.24c-7.01,0.25-14.03,0.38-20.75-2.49c-6.26-2.67-12.32-0.13-18.43,0.85
	c-14.82,2.36-29.63,3.56-44.31-0.89c-5.12-1.55-10.21-2.02-15.24-0.41c-14.69,4.7-29.53,4.39-44.19,0.82
	c-6.9-1.68-13.38-1.92-20.13-0.18c-15.3,3.94-30.65,3.5-45.95,0.09c-5.83-1.3-11.63-2.68-17.44-0.73
	c-13.97,4.69-28.01,3.89-42.06,0.92c-6.54-1.39-13.24-3.41-19.63-0.96c-13.04,5-26.21,3.13-39.36,2.05
	c-6.84-0.56-13.24-4.12-20.58-1.79c-12.54,3.98-25.43,3.41-38.33,1.72c-5.12-0.67-10.03-4.05-15.17-2.61
	c-14.85,4.13-29.92,3.69-45,3.65c-4.99-0.02-9.89,0.08-14.56-2.6c-3.23-1.86-6.74-1.41-10.27-0.58c-8.1,1.91-16.26,2.93-24.57,3.32
	c-10.41,0.49-20.49-2.02-30.75-2.74c-8.36-0.59-16.29,2.9-24.66,2.68C444.49,186.57,430.85,187.25,417.38,184.26z"/>
<path class="st3" d="M766.71,228.37c0.54-4.33,3.15-5.1,6.44-5.07c10.17,0.08,20.33,0.18,30.5-0.02c7.44-0.15,14.87-1.13,22.31-1.09
	c7.9,0.04,15.94-0.05,23.66,1.54c9.71,2.01,19.07-0.57,28.55-1.02c7.36-0.35,14.63-0.68,22,0.04c12.52,1.24,25.08,0.57,37.63,0.3
	c9.43-0.2,18.79-1.24,28.33-0.28c11.74,1.19,23.67,1.21,35.43,0.27c9.22-0.74,18.31-1.57,27.46,0.24c1.26,0.25,2.58,0.05,3.88,0.05
	c0,8.4,0,16.8,0,25.19c-10.5,3.31-21.12,4.62-31.97,2.54c-1.7-0.33-3.16-0.93-4.41-2.3c-3.93-4.28-23.66-5.99-28.13-2.39
	c-0.51,0.41-0.63,1.43-0.93,2.16c-31.48,0.07-62.96,0.15-94.44,0.22c-31-0.06-62-0.12-93-0.18c-0.03-1.6-0.87-2.55-1.83-3.65
	C773.81,239.9,769.08,235.18,766.71,228.37z"/>
<path class="st4" d="M417.38,184.26c13.47,2.99,27.11,2.31,40.72,2.66c8.37,0.21,16.3-3.27,24.66-2.68
	c10.26,0.72,20.34,3.23,30.75,2.74c8.31-0.39,16.47-1.42,24.57-3.32c3.53-0.83,7.04-1.28,10.27,0.58c4.67,2.68,9.56,2.59,14.56,2.6
	c15.08,0.05,30.15,0.48,45-3.65c5.15-1.43,10.05,1.95,15.17,2.61c12.91,1.68,25.79,2.26,38.33-1.72c7.34-2.33,13.74,1.23,20.58,1.79
	c13.15,1.07,26.32,2.95,39.36-2.05c6.39-2.45,13.09-0.42,19.63,0.96c14.05,2.98,28.09,3.77,42.06-0.92
	c5.82-1.95,11.61-0.57,17.44,0.73c15.29,3.41,30.65,3.85,45.95-0.09c6.74-1.74,13.22-1.5,20.13,0.18
	c14.66,3.57,29.5,3.88,44.19-0.82c5.03-1.61,10.13-1.14,15.24,0.41c14.68,4.44,29.5,3.25,44.31,0.89
	c6.12-0.98,12.17-3.52,18.43-0.85c6.72,2.87,13.74,2.73,20.75,2.49c7.81-0.28,15.72,1.91,23.41-1.24c0,3.36,0,6.72,0,10.08
	c-9.05,0-18.11-0.12-27.16,0.04c-6.98,0.13-13.93-0.21-20.95,0.95c-5.34,0.88-10.99-0.24-16.47-0.52
	c-14.64-0.74-29.34,0.39-44.03-0.03c-2.96-0.09-6.17,0.91-9.28,0.79c-9.38-0.36-18.74,0.48-28.15-1
	c-7.42-1.16-15.03,0.18-22.57,0.89c-11.58,1.08-23.17-0.66-34.76-1.06c-10.11-0.35-20.18,0.76-30.2,2.31
	c-1.59,0.25-3.3-0.14-4.9-0.52c-11.12-2.62-22.22-1.75-33.47-1.01c-13.98,0.92-28.05,0.41-42.07-0.02c-3.14-0.1-6.13,0.66-9.26,0.52
	c-13.43-0.59-26.86-2.32-40.31-1.26c-9.79,0.77-19.74-1.13-29.37,2.26c-2.46,0.86-4.71-0.7-7.03-1.16
	c-7.18-1.43-14.1-0.55-21.23,1.07c-8.4,1.91-16.77-1.58-25.17-2.15c-12.89-0.87-25.77,0.88-38.65,1
	c-17.77,0.17-35.56-0.54-53.33-1.2c-5.22-0.19-10.24,1.71-15.38,1.29c-20.6-1.67-41.19,1.02-61.79,0.04
	C417.37,192.66,417.37,188.46,417.38,184.26z"/>
<path class="st5" d="M898.64,579.98c2.54,0,5.08,0.01,7.62,0.01c7.38,2.36,14.89,0.65,22.34,0.98c13.23,0.04,26.46,0.07,39.69,0.13
	c2.54,0.01,5.41-0.54,5.83,3.76c-95.76,0-191.51,0-287.27,0c-0.26-2.1,0.18-3.7,2.27-4.12c8.12-0.01,16.24-0.02,24.36-0.03
	c32.15,0.03,64.3,0.06,96.45,0.1c10.37,0.01,20.75,0.02,31.12,0.02c11.86,1.09,23.66-0.82,35.5-0.81
	C883.91,582.98,891.27,578.79,898.64,579.98z"/>
<path class="st6" d="M766.71,228.37c2.37,6.81,7.11,11.53,11.48,16.54c0.96,1.1,1.8,2.05,1.83,3.65c-4.99,0.01-9.98-0.08-14.96,0.05
	c-23.43,0.6-46.87-1.22-70.29,0.96c-7.15,0.67-8.94,2.6-8.94,10.84c-0.02,47.21,0.08,94.41-0.08,141.62
	c-0.03,7.65-1.57,15.32,1.36,22.71c-0.58,0.77-1.23,1.49-1.72,2.33c-1.12,1.89-0.64,5.52-3.83,5.1c-3.05-0.4-2.48-3.78-2.92-5.95
	c-0.88-4.42-3.13-5.87-6.76-4.9c-2.9,0.78-0.68,4.75-2.74,6.15c-1.14-0.6-2.29-1.17-3.42-1.79c-3.78-2.09-6.53-0.14-8.23,3.41
	c-1.83,3.83-0.02,7.11,2.95,8.82c4.06,2.33,6.82-0.37,8.88-4.25c2.87-0.24,4.87,0.57,5.68,4.3c0.84,3.89,2.98,5.73,6.54,3.19
	c1.46-1.04,3.33-1.84,4.74-0.95c6.6,4.19,13.69,1.77,20.54,2.22c2.99,0.2,5.85,0.63,8.58,1.91c1.28,0.6,3.18,1.04,3.02,3.1
	c-0.15,2-2.06,2.59-3.39,2.48c-9.45-0.83-18.96,2.54-28.37-0.54c-3.26-1.07-6.59-0.4-9.89-0.53c-3.29-0.13-3.73,1.95-2.68,4.9
	c0.85,2.38,2.07,4.32,4.43,5.21c2.16,0.81,5.62,1.49,4.58,4.9c-1.05,3.42-2.5,7.7-7.01,7.65c-2.76-0.03-5.53,0-8.29,0
	c-8.67,0-8.67,0-6.47,8.82c-3.33,0.42-6.66,0.84-9.98,1.25c-4.87-2.37-10-4.13-14.44-7.56c-0.05-4.04-0.07-8.08,0.75-12.06
	c0.24,1.46,0.48,2.93,0.72,4.39c0.44-3.66,4.8-6.4,1.93-10.97c-0.91,1.35-1.64,2.44-2.37,3.53c0.43-8.12,1.05-16.23,1.23-24.36
	c0.08-3.8,1.54-5.66,4.51-6.72c5.31-1.89,9.98-5.08,14.11-9.31c5.81-3.01,10.75-6.68,8.92-15.4c3.13-0.56,3.94-2.72,3.81-6.14
	c-0.29-7.95-2.98-15.21-4.54-22.8c-3.93-19.01-15.2-32.52-26.37-46.17c-1.69-2.07-3.64-3.42-5.89-4.37
	c-0.5-1.02-1.41-0.83-2.21-0.95c-0.51-1.14-1.34-1.22-2.3-0.88c-0.55-1.18-1.09-2.36-1.63-3.55c0.11-0.91,0.21-1.82,0.31-2.72
	c1.46-4.6,4.17-8.8,3.5-14.08c1.74-1.3,2.82-3.23,3.7-5.28c1.41-3.27,1.69-6.33-1.41-8.76c-9.99-7.84-23.65-1.85-26.18,11.52
	c-0.29,7.37-1.37,14.55-3.73,21.45c-0.55,0.34-1.09,0.68-1.64,1.02c-0.57,0.03-1.15,0.06-1.72,0.1c-2.53,1.27-5.22,1.5-7.69,3.64
	c-10.01,8.67-15.52,20.88-21.29,32.97c-3.03,0.64-3.14,3.38-3.36,6.05c-1.38,6.75-2.76,13.5-4.14,20.25
	c-1.13,0.75-1.59,1.59-0.26,2.66c-0.17,5.02-0.29,10.04-0.54,15.05c-0.16,3.23,0.91,5.2,3.83,5.65c0.34,9.92,1.69,11.57,9.93,12.12
	c2.16,3.82,5.01,6.63,8.93,7.91c4.46,1.46,6.83,4.51,5.81,10.07c-0.99,1.47-1,2.99-0.17,4.54c-0.32,7.22-0.64,14.44-0.96,21.65
	c-1.27,5.4-1.26,10.87-0.65,16.37c0.04,0.81,0.09,1.63,0.13,2.44c-0.19,2.12-0.38,4.24-0.57,6.36c-0.22,0.35-0.45,0.7-0.67,1.05
	c-8.39-0.89-16.81-1.81-25.2-1c-3.73,0.36-7.67,1.46-10.25-1.89c-4.8-6.25-10.84-6.16-17.14-5.8c-1.2-1.37-2.43-2.02-3.28,0.31
	c-0.88,2.4-1.57,4.89-2.35,7.33c-3.21-0.5-1.95-3.69-2.67-5.7c0.27-1.4,0.27-2.97,0.85-4.18c9.23-19.25,4.54-32-5.66-45.68
	c-0.74-0.99-1.77-2.78-2.6,0.03c-3.81-1.45-7.5-2.9-10.63-6.18c-1.94-2.04-4.18-5.14-7.71-3.1c-0.37,0.21-1.08-0.11-1.55-0.37
	c-7.08-3.95-11.36-18.76-7.83-26.85c2.1-4.82,5.44-8.95,6.03-14.64c0.2-1.95,1.75-3,3.31-3.9c9.53-5.49,18-12.72,25.87-20.87
	c2.3-2.38,4.64-4.74,5.37-8.5c0.27-1.37,0.94-2.86,2.27-3.39c7.87-3.13,9.53-10.59,9.11-18.55c-0.24-4.63,2.93-7.01,3.51-10.82
	c7.39,0.31,11.14-2.15,10.26-11.48c-0.49-5.19-0.12-10.49-0.08-15.73c0.03-4.42-2.13-6.44-5.74-6.8c-1.84-0.19-3.69-0.15-5.54-0.22
	c-0.37-2.02-0.74-4.05-1.11-6.07c0.3-5.95-1.14-12.19,2.23-17.64c3.44-0.58,5.72-3.28,8.28-5.61c5.77-5.25,11.82-10.06,19.2-12.05
	c0.07,3.75,0.21,7.5,0.18,11.25c-0.03,3.26,1.01,5.19,4.12,5.17c5.14-0.03,10.28,0.08,15.42-0.03c3.2-0.07,5.1-1.64,4.96-5.77
	c-0.17-4.79,0.02-9.59,0.05-14.39c3.02-1.59,5.99-1.22,8.93,0.28c2.08,1.06,4.28,1.02,6.49,1.01c9.56-0.02,19.12-0.03,28.68,0
	c5.56,0.01,10.78-1.26,15.95-3.78c6.97-3.4,14.91-2.88,21.94-6.31c0.05,2.32-1.79,2.25-2.95,3.11c-1.18,0.88-2.78,1.88-2.02,3.92
	c0.82,2.17,2.37,1.3,3.78,0.71c8.99-3.71,18.59-3.33,27.77-3.52c11.14-0.24,22.31-1.14,33.49-0.55c5.42,0.29,10.91-1.18,16.28,0.67
	c1.83,0.63,3.17-0.09,3.28-2.04C762.28,226.03,764.79,228.16,766.71,228.37z M645.87,268.8c2.21,0,4.41,0.07,6.62-0.03
	c1.26-0.05,2.47-0.15,3.17-1.86c3.6-8.84-0.78-17.12-9.13-17.09c-10.92,0.03-10.76,0.03-10.76,12.39c0,4.79,1.3,7.12,5.7,6.61
	C642.92,268.65,644.4,268.79,645.87,268.8z M668.38,451.14c2.13-0.27,3.79-1.69,3.78-4.28c0-2.44-1.16-4.35-3.78-4.33
	c-2.03,0.01-3.6,0.28-3.74,3.26C664.5,448.84,665.62,450.52,668.38,451.14z M572.86,436.04c2.24-0.24,3.85-1.7,3.92-4.24
	c0.07-2.27-1.45-4.03-3.44-4.1c-2-0.07-4.4,0.77-4.67,3.34C568.36,433.94,570.52,435.28,572.86,436.04z"/>
<path class="st7" d="M669.14,427.47c2.06-1.41-0.16-5.37,2.74-6.15c3.63-0.98,5.88,0.48,6.76,4.9c0.43,2.17-0.14,5.56,2.92,5.95
	c3.19,0.41,2.72-3.22,3.83-5.1c0.5-0.84,1.14-1.56,1.72-2.33c3.2,2.42,6.74,2.72,10.5,2.71c44.08-0.11,88.16-0.1,132.24-0.12
	c44.39,0.04,88.79,0.09,133.18,0.13c0.55,4.81,3.84,3.63,6.44,3.69c7.7,0.18,8.46,0.75,7.88,9.34c-0.36,5.4-1.25,10.75-1.09,16.21
	c0.24,8.32-5.63,12.31-10.48,15.24c-9.86,5.95-20.55,9.93-32.08,9.65c-9.7-0.23-19.37,2.76-29.12,0.08
	c-1.97-0.54-4.6-0.27-5.58-2.12c-3.13-5.9-7.41-4.89-12.43-4.5c-10.72,0.83-21.03-3.09-31.52-5.06
	c-14.76-2.77-29.51-6.41-44.63-3.56c-4.77,0.9-9.06-1.12-13.4-2.82c-0.07-2.19,1.61-6.79-2.98-2.71c-1.4,1.25-3.05,2.12-4.59,3.17
	c-17.43-1.23-34.75,2.41-52.08,1.97c-11.61-0.3-21.97,4.34-32.76,6.92c-14.35,3.42-28.42,8.07-43.28,7.34
	c-2.2-8.82-2.2-8.81,6.47-8.82c2.76,0,5.53-0.04,8.29,0c4.52,0.06,5.96-4.22,7.01-7.65c1.04-3.41-2.41-4.08-4.58-4.9
	c-2.36-0.89-3.58-2.83-4.43-5.21c-1.05-2.94-0.61-5.03,2.68-4.9c3.3,0.13,6.63-0.54,9.89,0.53c9.4,3.08,18.92-0.29,28.37,0.54
	c1.33,0.12,3.23-0.48,3.39-2.48c0.16-2.06-1.74-2.5-3.02-3.1c-2.73-1.29-5.59-1.72-8.58-1.91c-6.85-0.45-13.94,1.97-20.54-2.22
	c-1.41-0.89-3.28-0.09-4.74,0.95c-3.56,2.53-5.7,0.69-6.54-3.19c-0.8-3.73-2.81-4.53-5.68-4.3
	C669.26,431.59,669.2,429.53,669.14,427.47z M874.41,459.24c6.16-0.61,11.2-4.52,16.5-7.11c-1.08-2.29-2.15-4.46-3.14-6.66
	c-0.92-2.05-2.08-3.45-4.32-2.43c-4.36,1.97-9.25,2.68-12.65,6.91c-3.76-0.21-6.48,2.75-9.32,4.65c-3.81,2.55,0.03,5.82,0.72,8.62
	c0.66,2.71,2.98,4.09,5.16,2.47C869.86,463.83,873.08,462.79,874.41,459.24z"/>
<path class="st3" d="M682.4,228.36c-7.03,3.42-14.97,2.9-21.94,6.31c-5.17,2.53-10.39,3.8-15.95,3.78c-9.56-0.02-19.12-0.02-28.68,0
	c-2.21,0-4.41,0.05-6.49-1.01c-2.94-1.5-5.91-1.87-8.93-0.28c-5.92-5.02-12.42,20.84-19.08-2.49c-1.04-3.64-5.81,1.79-5.65,6.25
	c-7.38,1.99-13.43,6.8-19.2,12.05c-2.56,2.33-4.83,5.03-8.28,5.61c1.84-8.01,0.15-10.28-6.79-8.53c-14.95,3.78-30.16,2.86-45.09,1.6
	c-5.66-0.48-13.6,1.13-18.04-6.51c-0.32-0.56-1.75-0.47-2.64-0.39c-3.9,0.36-5.65-1.78-5.03-5.98c1.04-7.11-2.05-8.74-7.46-7.94
	c-3.74,0.55-6.58-0.07-6-5.79c0.31-3.03-1.24-2.98-3.03-1.31c-2.7,2.52-3.5,6.29-3.06,9.57c0.52,3.98,4.14,2.47,6.52,2.54
	c7.01,0.2,5.72,0.17,6.05,7.95c0.38,9.25-3.98,8.7-9.13,8.46c-7.7-0.35-15.48,1.04-23.11-1.23c-4.86-1.44-7.91-7.1-13.4-7.34
	c-0.95-0.04-0.63-2.62-0.63-4.06c-0.03-7.13-0.01-14.25-0.01-21.38c8.28-0.45,16.59,1.25,24.7-3.33c4.12-2.32,9.32,0,13.83,1.85
	c2.97,1.22,5.99,1.79,9.14,1.46c-0.2,5.13,3.2,3.48,5.55,3.8c12.69,0.62,25.37-0.27,38.11,0.77c12.33,1,24.81-0.63,37.22-0.72
	c22.06-0.17,44.12-0.08,66.18-0.03c14.02,0.03,27.98-2.24,42.09,0.94c7.7,1.74,15.93,0.14,23.89-0.89
	C682.66,221.53,683.81,223.26,682.4,228.36z"/>
<path class="st8" d="M963.03,427.46c-44.39-0.04-88.79-0.09-133.18-0.13c0.02-4.19,1.89-8.16,1.12-12.44
	c38.81-0.04,77.62-0.22,116.43,0.02c8.52,0.05,11.41-0.66,12.29-14.21c0.54-8.41-0.81-16.69-1.12-25.04
	c-1.27-34.75,2.36-69.49,0.09-104.25c-0.55-8.43-0.82-9.03-8.6-9.05c-29.38-0.09-58.76-0.18-88.14-0.27
	c1.32-3.3,4.47-3.34,6.81-4.57c3.57-1.87,5.18-4.37,4.29-8.76c31.48-0.07,62.96-0.15,94.44-0.22c2.56,0.66,3.53,3.61,5.56,5.03
	c0,7.22-0.02,14.44,0.01,21.67c0.01,1.98-0.48,4.34,2.18,4.81c0,1.25,0,2.49,0,3.74c-2.72,0.49-2.18,2.91-2.18,4.9
	c-0.02,39.16-0.02,78.31,0,117.47c0,1.99-0.54,4.41,2.18,4.9c0.98,4.82-1.41,8.91-2.9,12.84
	C970.79,427.87,966.57,427.66,963.03,427.46z"/>
<path class="st9" d="M520.43,433.71c0.83-2.81,1.86-1.02,2.6-0.03c10.21,13.68,14.9,26.43,5.66,45.68
	c-0.58,1.21-0.58,2.78-0.85,4.18c-4.03,7.45-3.5,13.39,2.06,18.79c0.21-4.61,0.41-8.85,0.6-13.09c0.78-2.45,1.47-4.93,2.35-7.33
	c0.85-2.32,2.08-1.68,3.28-0.31c-0.22,1.96,0.64,3.52,1.46,5.1c0.22,0.35,0.44,0.7,0.66,1.06c0.3,1.3,1.01,2.19,2.1,2.69
	c0.61,1.79,1.75,2.6,3.44,2.41c3.7,4.28,8.11,7.92,9.96,13.92c0.06,2.52,0.12,5.05,0.17,7.57c-0.83,2.84-1.67,5.67-2.5,8.51
	c-2.52,0.66-2.47,3.28-3.16,5.34c-1.52,1.74-3.03,3.48-4.55,5.22c-3.7,0.87-7.27-2.14-11-0.51c-1.52-0.24-3.04-0.47-4.56-0.71
	c-0.67-1.93-2.05-1.52-3.36-1.3c-0.87-0.17-1.74-0.34-2.61-0.51l-0.02,0c-1.14-0.15-2.28-0.29-3.42-0.44
	c-2.09-1.85-4.53-1.39-6.9-1.3c-9.22-2.32-18.45-4.63-27.67-6.95c-2.47-10.96-1.45-21.61,2.11-32.06c2.78-0.49,2.27-3.16,2.69-5.21
	c0.23-0.33,0.45-0.66,0.68-1c1.4-0.93,2.11-2.4,2.52-4.11c1.34-1.65,2.68-3.3,4.03-4.95c4.16,2.79-0.18,8.19,3.02,11.89
	c1.5-5.73,4.33-10.16,7.78-14.13c1.68-1.93,3.31-3.94,3.33-6.92c0.49-0.68,0.97-1.36,1.46-2.04c1.19-1.03,2.15-2.22,2.26-4.03
	c0,0-0.03,0.06-0.03,0.05c2.4,0.11,2.48-2.34,3.36-3.92c0.32-0.82,0.64-1.63,0.96-2.45c1.35-1.42,2.15-3.09,1.95-5.25
	C521.21,442.94,521.29,438.33,520.43,433.71z"/>
<path class="st10" d="M511.84,528.63c2.38-0.09,4.81-0.55,6.91,1.3c-6.29,1.05-8.37,4.07-8.23,12.83c0.04,2.64-1.58,6.66,1.58,7.67
	c3.27,1.04,7.29,2.07,9.92-2.33c1.4,2.21,3.25,2.89,5.66,2.84c7.84-0.19,15.69-0.13,23.54-0.17c11.7,0.1,23.4,0.2,35.1,0.27
	c1.24,0.01,2.63,0.19,3.24-1.58c4.45,0.95,8.86,2.51,13.48,1.29c5.49,0,10.98,0,16.52,0c-0.04-2.16-1.36-4.5,0.69-6.32
	c2.64-0.04,5.28-0.09,7.92-0.13c0.21,0.25,0.28,0.54,0.2,0.88c-1.36,0.54-2.71,1.12-4.08,1.6c-1.12,0.39-2.88-0.01-2.59,2.16
	c0.17,1.27,1.36,2.03,2.49,1.95c3.48-0.25,7.12,1.36,10.43-1.06c1.18,1.28,2.67,1.26,4.15,1.25c14.18-0.08,28.36-0.16,42.54-0.23
	c3.7,0,7.39-0.01,11.09-0.01c0.37-0.01,0.73-0.02,1.1-0.03c0.54,0.04,1.08,0.09,1.62,0.13c2.17-0.04,4.33-0.08,6.5-0.12
	c6.44,0.01,12.88,0.03,19.32,0.04c2.4,0.02,4.8,0.03,7.19,0.05c9.17-0.02,18.34-0.04,27.5-0.07c2.62,0,5.23,0.01,7.85,0.01
	c4.03,0.23,8.05,0.32,12.08,0.84c4.3,0.55,8.86,1.03,12.74-2.3c3.48,2.55,7.02,1.99,10.58,0.25c8.38,2.72,16.93,0.67,25.39,1.17
	c25.23,0.06,50.45,0.11,75.66,0.17c7.31,0,14.63,0.01,21.95,0.01c1.5-0.02,3-0.03,4.5-0.04c7.05,0.01,14.1,0.03,21.15,0.04
	c1.45-0.07,2.9-0.15,4.36-0.22c1.3,0.05,2.61,0.09,3.91,0.14c4.39,0.02,8.79,0.04,13.18,0.06c13.11,0.09,26.22,0.18,39.32,0.29
	c1.47,0.01,2.96-0.01,4.41,0.22c1.15,0.18,2.15,0.99,2.15,2.45c0,1.41-0.9,2.35-2.09,2.5c-1.64,0.22-3.31,0.23-4.97,0.23
	c-113.01,0.09-226.03,0.17-339.04,0.22c-1.8,0-3.71,0.59-5.37-0.77c-0.8-1.57-2.16-1.33-3.42-1.33
	c-18.73-0.03-37.45-0.05-56.18-0.05c-1.25,0-2.64-0.27-3.33,1.44c-3.79,1.25-7.58,1.21-11.37,0.04c-1.13-2.54-3.23-1.54-4.91-1.55
	c-40.17-0.11-80.35-0.16-120.52-0.15c-1.89,0-4.15-0.96-5.49,1.66c-1.68-0.04-2.37-1.16-1.98-2.86c0.46-1.97,2.05-2.21,3.55-2.22
	c4.77-0.05,9.56-0.31,14.32,0.05c3.96,0.3,5.38-1.51,5.02-5.74c0.13,2.37-0.56,5.41,2.86,5.49c7.68,0.18,15.37-0.11,23.02,1.12
	c2.83,0.46,3.53-1.66,3.25-4.28C507.46,540.85,509.21,534.64,511.84,528.63z"/>
<path class="st9" d="M789.45,464.08c1.54-1.04,3.19-1.92,4.59-3.17c4.59-4.09,2.91,0.51,2.98,2.71c-1.61,4.39-0.77,8.72,0.27,13.04
	c0.02,1.4,0.15,2.75,1.2,3.73c0.72,5.24,4.04,9.08,5.73,13.8c0.62,2.56,1.23,5.13,1.87,7.68c0.24,0.96,0.46,2.1,1.61,2.08
	c1.22-0.02,1.25-1.23,1.41-2.2c0.31-1.9-0.38-4.29,1.98-5.18c1.42,2.98,2.83,5.96,4.25,8.94c1.73,7.61,0.81,15.39,1.19,23.09
	c-0.3,1.07-0.84,1.83-1.92,1.81c-6.2-0.12-11.91,3.41-18.13,3.14c-3.52,1.15-7.39,0.26-10.74,2.39c-6.24,1.22-12.48,2.43-18.72,3.65
	c-2.92-1.96-4.53-5.23-6.42-8.23c-2.77-8.55-3.63-16.75,3.29-23.56c0.22-0.08,0.41-0.21,0.58-0.39c2.9-0.22,5.25-1.59,6.95-4.3
	c4.4-0.59,4.11-6.44,7.3-8.38c4.64,3.31,2.25,9.47,4.48,13.87c0.65-6.2,1.35-12.33-0.34-18.43c-0.02-1.11-0.04-2.22-0.05-3.33
	c1.11-2.93,0.64-6.01,0.66-9.04C784.47,472.67,787.71,468.8,789.45,464.08z"/>
<path class="st9" d="M921.89,550.98c-7.32,0-14.64-0.01-21.95-0.01c-2.4-2.55-4.78-5.14-7.22-7.66c-6.81-7.05-8.58-19.43-4.42-28.95
	c1.74-3.96,3.35-3.88,5.54-0.76c1.93,2.75,2.84,6.34,5.46,8.52c1.2,1.93,1.25,6.06,4.9,3.33c0.74-0.16,1.48-0.32,2.21-0.48
	c2.16,0.41,4.31,0.83,6.47,1.24c0.39,0.06,0.78,0.12,1.17,0.18c4.02,1.51,7.07-4.12,11.17-1.96c-0.29,2.5-0.58,5-0.86,7.5
	c-3.24,7.53-3.26,7.76,3.49,8.83c3.09,0.49,3.03,2.15,2.43,4.65c-0.84,0.03-1.45,0.45-1.79,1.34
	C926.05,547.66,923.68,548.75,921.89,550.98z"/>
<path class="st9" d="M903.33,503.72c-0.44-2.95-4.04-6.32,0.89-8.56c0.89,0.16,1.74,0.21,2.3-0.83c1.82-0.64,3.64-1.29,5.45-1.93
	c0.87,0.3,1.67,0.23,2.3-0.61c2.46,0.01,4.91,0.02,7.37,0.03c0.73,3.42,3.65,2.09,5.46,3.04c6.2,3.26,10.89,8.22,14.61,14.56
	c0.03,1.75,0.18,3.46,1.21,4.89c-0.04,2.91-0.08,5.82-0.12,8.73c-1.08,3.35-2.16,6.71-3.24,10.06c-1.43,1.67-2.86,3.35-4.29,5.02
	c-3.16-1.34-7.22-1.14-8.17-6.23c1.14-1.14,1.92-2.46,1.81-4.29c1.18-0.66,1.97-1.61,1.92-3.21c0.12-0.58,0.25-1.17,0.37-1.76
	c1.73-0.75,3.88-1.63,3.5-4.04c-0.47-3-2.96-1.35-4.55-1.48c-1.98-0.16-3.98,0.15-5.98,0.26c-1.44-0.24-2.88-0.49-4.32-0.73
	c-0.52-5.05-3-3.88-5.62-2.28c-0.73,0.18-1.46,0.36-2.2,0.53c-1.09-0.24-2.18-0.48-3.27-0.72c0,0,0.04,0.05,0.04,0.05
	C908,510.03,908.05,505.27,903.33,503.72z"/>
<path class="st11" d="M511.84,528.63c-2.63,6.01-4.38,12.22-3.63,19.09c0.29,2.62-0.42,4.74-3.25,4.28
	c-7.65-1.23-15.34-0.94-23.02-1.12c-3.42-0.08-2.73-3.12-2.86-5.49c0.01-1.52,0.03-3.06,0.04-4.6c0,0,0,0.01,0,0.01
	c1.25-6.51,1.49-13.37,5.03-19.12C493.39,524,502.62,526.31,511.84,528.63z"/>
<path class="st11" d="M796.46,533.56c6.22,0.26,11.93-3.27,18.14-3.14c1.08,0.02,1.62-0.74,1.92-1.81c0.41-0.13,0.82-0.26,1.22-0.39
	c6.73,2.79,4.35,10.44,6.35,15.73c0.74,1.95,0.16,4.55,0.18,6.85c-8.46-0.5-17.01,1.55-25.39-1.17c-0.03-2.15-0.06-4.3-0.09-6.45
	c0.31-1.04,0.17-1.93-0.7-2.55c-0.31-0.77-0.63-1.54-0.94-2.31c0.07-0.17,0.24-0.41,0.2-0.48c-0.17-0.29-0.41-0.52-0.62-0.77
	C796.64,535.9,796.55,534.73,796.46,533.56z"/>
<path class="st3" d="M975.21,411.04c-2.72-0.49-2.18-2.91-2.18-4.9c-0.02-39.16-0.02-78.31,0-117.47c0-1.99-0.54-4.41,2.18-4.9
	C975.21,326.2,975.21,368.62,975.21,411.04z"/>
<path class="st9" d="M968.99,550.96c-4.39-0.02-8.79-0.04-13.18-0.06c0.63-4.02,3.05-0.62,4.56-1.32c1.37-0.64,3.51,0.55,4.29-1.58
	c0.81-2.22-0.58-3.73-2.12-4.92c-0.11-1.63-0.21-3.27-0.32-4.9c-0.04-2.01-0.07-4.02-0.11-6.03c0,0-0.03,0.03-0.03,0.03
	c1.44-0.16,2.2-1.05,2.25-2.71c1.05-1.6,2.24-2.77,4.19-1.96c6.37,2.67,8.57,12.84,4.04,18.71
	C971.35,547.8,970.18,549.38,968.99,550.96z"/>
<path class="st9" d="M954.4,531.98c0.07,0.81,0.13,1.62,0.2,2.43c0.94,4.88,5.82,10.66-2.36,13.52c-0.16,0.06-0.15,0.76-0.22,1.15
	c-1.53-0.12-3.05-0.23-4.58-0.34l-0.31-0.36c0.19-1.88-0.3-2.66-1.95-1.53c-0.29-0.32-0.59-0.65-0.88-0.97
	c-3.18-10.47-1.95-15.59,4.46-19.23c2.8-1.59,5.69-0.89,8.57-0.9c-0.05,0.57-0.11,1.14-0.16,1.71
	C955.7,528.53,953.96,529.39,954.4,531.98z"/>
<path class="st3" d="M841.04,580.84c-10.37-0.01-20.75-0.01-31.12-0.02c-0.3-4.15,1.06-6.21,5.04-6.08c7.01,0.22,14.04,0.22,21.06,0
	C840.02,574.61,841.34,576.71,841.04,580.84z"/>
<path class="st12" d="M458.18,556.15c1.34-2.62,3.6-1.66,5.49-1.66c40.17,0,80.35,0.04,120.52,0.15c1.68,0,3.78-0.99,4.91,1.55
	C545.46,556.18,501.82,556.17,458.18,556.15z"/>
<path class="st3" d="M942.91,514.31c-1.03-1.43-1.18-3.14-1.21-4.89c1.04-0.5,1.32-1.5,1.36-2.66c6.46,1.44,12.93,2.88,20.99,4.68
	C956.2,515.96,949.41,513.66,942.91,514.31z"/>
<path class="st3" d="M898.64,579.98c-7.37-1.19-14.73,3-22.1,0.04c-0.16-2.46,0.46-4.03,3.01-3.99c5.35,0.08,10.7,0.08,16.05,0
	C898.12,575.99,898.83,577.48,898.64,579.98z"/>
<path class="st6" d="M927.1,531.9c0.95,5.08,5.01,4.89,8.17,6.23c-0.21,3.71,1.51,9.12-4.98,7.29c0.6-2.49,0.66-4.16-2.43-4.65
	c-6.75-1.07-6.72-1.3-3.49-8.83C925.28,531.93,926.19,531.91,927.1,531.9z"/>
<path class="st6" d="M957.34,525.75c-2.88,0.01-5.77-0.69-8.57,0.9c-6.41,3.65-7.64,8.77-4.46,19.24c-3.4-0.63-3.26-3.7-3.5-6.53
	c-0.18-2.14,0.69-4.56-1.26-6.25c1.08-3.35,2.16-6.71,3.24-10.06c1.72,2.24,3.58,2.93,6.13,1.47c2.45-1.41,5.2-1.82,7.94-1.26
	C958.38,523.56,958.5,524.59,957.34,525.75z"/>
<path class="st6" d="M952.02,549.09c0.07-0.4,0.06-1.1,0.22-1.16c8.18-2.86,3.3-8.64,2.36-13.52c2.02-0.09,2.54,1.2,3.07,3.27
	c0.66,2.6,1.54,5.61,4.87,5.4c1.54,1.19,2.94,2.7,2.12,4.92c-0.78,2.13-2.93,0.94-4.29,1.58c-1.51,0.71-3.93-2.7-4.56,1.32
	c-1.3-0.05-2.6-0.09-3.91-0.14C951.94,550.2,951.98,549.64,952.02,549.09z"/>
<path class="st12" d="M600.48,556.15c0.69-1.71,2.08-1.45,3.33-1.44c18.73,0,37.45,0.02,56.18,0.05c1.26,0,2.62-0.24,3.42,1.33
	C642.43,556.11,621.45,556.13,600.48,556.15z"/>
<path class="st6" d="M510.33,465.18c-0.02,2.98-1.65,5-3.33,6.92c-3.45,3.97-6.29,8.4-7.78,14.13c-3.2-3.7,1.14-9.1-3.02-11.89
	c-0.03-1.38,0.65-3.24,1.62-2.6c5.75,3.76,7.36-1.95,10.11-5.24C508.5,465.81,509.52,465.6,510.33,465.18z"/>
<path class="st6" d="M943.07,506.76c-0.04,1.16-0.32,2.16-1.36,2.66c-3.72-6.34-8.41-11.3-14.61-14.56
	c-1.81-0.95-4.73,0.38-5.46-3.04C931.19,492.33,938.02,497.9,943.07,506.76z"/>
<path class="st3" d="M713.48,580.72c-8.12,0.01-16.24,0.02-24.36,0.03c0.98-1.87,2.52-2.21,4.28-2.2c5.53,0.04,11.07,0.02,16.6,0.02
	C711.51,578.57,713.04,578.5,713.48,580.72z"/>
<path class="st3" d="M975.2,280.04c-2.66-0.47-2.17-2.83-2.18-4.81c-0.03-7.22-0.01-14.44-0.01-21.67c2.68,0.44,2.19,2.81,2.19,4.79
	C975.23,265.58,975.21,272.81,975.2,280.04z"/>
<path class="st7" d="M817.74,528.22c-0.41,0.13-0.81,0.26-1.22,0.39c-0.39-7.7,0.53-15.48-1.19-23.09c3.24,0.55,4.34,4.62,3.99,6.29
	C818.2,517.27,820.11,523.03,817.74,528.22z"/>
<path class="st7" d="M811.08,496.58c-2.36,0.89-1.67,3.28-1.98,5.18c-0.16,0.97-0.19,2.18-1.41,2.2c-1.15,0.02-1.37-1.11-1.61-2.08
	c-0.64-2.55-1.25-5.12-1.87-7.68C806.16,496.27,810.42,489.7,811.08,496.58z"/>
<path class="st6" d="M924.17,517.38c1.99-0.11,4-0.42,5.98-0.26c1.59,0.13,4.08-1.52,4.55,1.48c0.38,2.41-1.77,3.29-3.5,4.04
	c-0.33-2.36-1.52-3.43-3.65-3.29C926.14,519.43,924.64,519.49,924.17,517.38z"/>
<path class="st3" d="M547.09,282.31c-2.23,0.01-4.46,0.02-6.68,0.03c0.05-4.17,2.82-5.12,5.57-6.1
	C546.35,278.26,546.72,280.28,547.09,282.31z"/>
<path class="st6" d="M903.33,503.72c4.72,1.55,4.68,6.31,5.47,10.5C905.73,511.56,902.56,508.97,903.33,503.72z"/>
<path class="st7" d="M798.48,480.39c-1.04-0.98-1.17-2.33-1.2-3.73c0.36-0.03,0.75-0.17,1.09-0.08c2.29,0.62,6.47-1.75,6.52,1.78
	C804.94,482.05,800.69,479.52,798.48,480.39z"/>
<path class="st6" d="M925.23,524.44c-4.11-2.17-7.16,3.47-11.17,1.96c2.83-3.03,6.15-4.71,10.08-4.48
	C925.57,522,926.88,522.48,925.23,524.44z"/>
<path class="st3" d="M928.59,580.97c-7.45-0.33-14.96,1.38-22.34-0.98C913.7,580.3,921.22,578.53,928.59,580.97z"/>
<path class="st6" d="M912.89,526.21c-2.16-0.41-4.31-0.82-6.47-1.24C910.59,520.6,911.49,520.77,912.89,526.21z"/>
<path class="st6" d="M914.23,514.37c2.62-1.6,5.1-2.77,5.62,2.28C917.13,518.58,916.18,514.87,914.23,514.37z"/>
<path class="st6" d="M962.11,532.15c0.04,2.01,0.07,4.02,0.11,6.03c-2.29,0.09-3.25-1.64-3.23-3.78
	C959.02,532.41,960.54,531.98,962.11,532.15z"/>
<path class="st6" d="M904.21,525.46c-3.66,2.73-3.7-1.39-4.9-3.33C901.55,522.07,903.6,522.4,904.21,525.46z"/>
<path class="st6" d="M488.97,484.41c-0.42,2.05,0.09,4.73-2.69,5.21C486.32,487.32,485.04,484.13,488.97,484.41z"/>
<path class="st6" d="M954.4,531.98c-0.44-2.59,1.3-3.46,2.78-4.53C957.64,530.06,956.75,531.6,954.4,531.98z"/>
<path class="st6" d="M517.37,455.24c-0.87,1.58-0.95,4.04-3.36,3.92C513.45,455.99,514.68,454.81,517.37,455.24z"/>
<path class="st6" d="M908.76,514.18c1.09,0.24,2.18,0.48,3.27,0.72c-0.26,0.98-0.65,1.84-1.72,1.76
	C908.94,516.55,908.76,515.43,908.76,514.18z"/>
<path class="st6" d="M520.29,447.54c0.2,2.16-0.61,3.83-1.95,5.25C518.44,450.78,517.41,448.22,520.29,447.54z"/>
<path class="st6" d="M492.17,479.3c-0.41,1.71-1.12,3.19-2.52,4.11C489.39,481.18,489.19,478.98,492.17,479.3z"/>
<path class="st6" d="M514.05,459.11c-0.1,1.81-1.07,3-2.26,4.03C511.63,461.14,511.25,458.98,514.05,459.11z"/>
<path class="st6" d="M906.51,494.34c-0.55,1.03-1.41,0.99-2.3,0.83C904.55,493.36,905.1,492.32,906.51,494.34z"/>
<path class="st6" d="M964.32,529.48c-0.05,1.66-0.81,2.54-2.25,2.71C961.87,530.26,962.73,529.47,964.32,529.48z"/>
<path class="st6" d="M914.26,491.8c-0.64,0.84-1.43,0.91-2.3,0.61C912.42,490.67,913.06,489.86,914.26,491.8z"/>
<path class="st6" d="M930.83,524.4c0.04,1.6-0.75,2.56-1.92,3.21C928.58,525.79,929.03,524.58,930.83,524.4z"/>
<polygon class="st10" points="479.13,540.8 479.13,540.79 479,540.77 "/>
<path class="st0" d="M470.55,222.07c-2.35-0.32-5.75,1.33-5.55-3.8c0.26-2.83-0.8-5.96,1.36-8.37c0.89-0.99,1.66-2.67,3.07-2.27
	c1.69,0.47,1.08,2.41,1.11,3.76C470.61,214.94,470.55,218.5,470.55,222.07z"/>
<path class="st13" d="M873.01,248.74c0.9,4.4-0.72,6.89-4.29,8.76c-2.34,1.23-5.5,1.27-6.81,4.58
	c-50.64,0.06-101.28,0.1-151.93,0.16c-10.09,0.01-10.99,1.06-11,12.71c-0.02,42.4-0.03,84.81-0.02,127.21
	c0,11.32,1.18,12.6,11.12,12.61c40.29,0.04,80.59,0.07,120.88,0.11c0.77,4.28-1.1,8.25-1.12,12.44
	c-44.08,0.02-88.16,0.01-132.24,0.12c-3.76,0.01-7.3-0.3-10.5-2.71c-2.93-7.39-1.39-15.06-1.36-22.71
	c0.16-47.2,0.06-94.41,0.08-141.62c0-8.24,1.8-10.17,8.94-10.84c23.41-2.18,46.86-0.36,70.29-0.96c4.98-0.13,9.97-0.04,14.96-0.05
	C811.02,248.62,842.02,248.68,873.01,248.74z"/>
<path class="st0" d="M782.79,486.84c0.02,1.11,0.04,2.22,0.05,3.33c-1.38,1.52-2.76,3.04-4.14,4.56c-3.19,1.95-2.9,7.8-7.3,8.38
	c-2.68-0.03-5.36-0.06-8.04-0.09c-2.84-5.84-5.22-12.09-10.14-16.19c-6.5-5.42-6.57-5.35-8.75,3.4c-0.86,3.42-1.69,6.85-2.4,10.32
	c-0.51,2.51-1.85,3.88-3.88,4.85c-5.58,2.67-11.1,5.52-16.66,8.24c-1.98,0.97-3.19,2.32-3.73,4.92c-1.14,5.6-2.71,11.1-4.08,16.56
	c-6.76-6.68-6.54-13.07-1.29-20.49c6.01-8.51,6.72-17.63,1.47-27.63c-3.61-6.88-4.38-8.07-11.5-5.83
	c-6.26,1.97-11.79,6.38-18.44,7.03c-2.91,0.06-3.96,1.51-2.67,4.67c-0.14,1.72-0.28,3.44-0.42,5.16c-0.33,0.12-0.55,0.38-0.63,0.76
	c-2.39,2.43-5.09,3.82-8.34,4.33c-5.21,0.83-7.93,7.99-4.36,12.13c5.14,5.97,7.84,14.09,13.76,19.27c0.55,5.21-2.04,7.24-6.1,7.47
	c-4.16,0.24-8.34,0.31-12.5,0.28c-1.79-0.01-3.81,0.3-4.04,2.23c-0.3,2.55,1.94,2.53,3.58,2.55c4.78,0.05,9.56,0.05,14.35,0.01
	c2.41-0.02,4.47,0.38,4.71,3.78c-14.18,0.08-28.36,0.16-42.54,0.23c-1.48,0.01-2.97,0.04-4.15-1.25c-1.64-2.32-3.91-3.54-6.24-4.65
	c0.08-0.34,0.01-0.63-0.2-0.88c-0.02-3.12-0.04-6.23-0.07-9.35c2.21-0.48,2.83-1.93,2.03-4.25c0.12-0.81,0.24-1.61,0.36-2.42
	c1.59-0.89,1.21-2.43,1.01-3.91c0.03-1.64,0.07-3.28,0.1-4.92c1.8-1.29,1.04-3.28,1.06-5.06c2.21-9.95,1.79-20.27,3.34-30.31
	c4.86-2.89,10.52,0.53,15.35-2.53c3.33-0.42,6.66-0.84,9.98-1.25c14.86,0.73,28.92-3.92,43.28-7.34
	c10.79-2.57,21.15-7.21,32.76-6.92c17.32,0.44,34.64-3.19,52.08-1.97c-1.74,4.72-4.98,8.59-5.99,13.71
	C779.36,480.45,780.47,483.59,782.79,486.84z"/>
<path class="st12" d="M636,484.09c-1.54,10.04-1.13,20.36-3.34,30.31c-3.46,0.84-2.85,2.79-1.06,5.06c-0.03,1.64-0.07,3.28-0.1,4.92
	c-1.33,0.98-3.33,1.73-1.01,3.91c-0.12,0.81-0.24,1.61-0.36,2.42c-2.94,2.5-7.38-0.85-9.91,3.27c-0.01,0.25,0.02,0.48,0.11,0.71
	c-3.27-1.09-2.24-3.94-2.03-6.45c0.68-0.02,1.72,2.84,1.89,0.17c0.36-5.7,0.15-11.46,0.01-17.19c-0.04-1.64-1.26-0.84-2.06-0.68
	c-0.44-8.38-0.88-16.76-1.32-25.15c0.02-5.07,0.04-10.15,0.06-15.22c0.2-0.39,0.19-0.77-0.03-1.14c-0.19-5.77-0.38-11.53-0.57-17.3
	c0.73-1.71,1.03-3.38-0.46-5.25c-1.27,1.52-1.26,3.06-1.04,4.65c-1.58,8.44-4.35,16.61-4.54,25.38c-0.14,0.82-0.28,1.63-0.42,2.45
	c-0.85,2.91-1.5,5.85-1.43,8.95c-2.53,14.29-5.1,28.56-7.53,42.87c-0.46,2.71-1.11,4.78-3.85,5c-2.57-0.89-5.19-1.39-7.89-1.04
	l0.08-0.25c-0.27-1.11-0.7-2.1-1.69-2.61c0.07-0.76,0.13-1.51,0.2-2.27c2.19-5.39,1.44-10.92,0.6-16.45
	c0.34-4.24,0.68-8.47,1.02-12.71c2.75-3.1,3.1-12.72,0.64-17.57c-0.04-0.81-0.09-1.63-0.14-2.44c2.48-5.34,1.37-10.86,0.65-16.37
	c0.32-7.22,0.64-14.44,0.96-21.65c0.06-1.51,0.11-3.03,0.17-4.54c1.02-5.56-1.35-8.61-5.81-10.07c-3.92-1.28-6.76-4.09-8.93-7.91
	c1.74-1.43,0.72-3.73,1.36-5.51c3.86-0.24,7.89,2.61,11.57-0.84c4.8,2.12,10.1,4.64,14.76,1.73c7.99-5.01,16.76-1.16,24.79-4.11
	c0.71-0.26,1.85,0.2,2.54,0.74c4.68,3.65,9.06,3.43,13.84-0.87c3.7,1.33,7.4-0.06,11.1,0.03c0.31,2.49,0.62,4.97,0.93,7.46
	c-4.13,4.23-8.8,7.42-14.11,9.31c-2.96,1.06-4.42,2.92-4.51,6.72c-0.18,8.13-0.79,16.24-1.23,24.36c-0.09,1.02-0.18,2.03-0.28,3.05
	c-0.82,3.97-0.8,8.01-0.75,12.06C634.96,477.18,636.05,480.7,636,484.09z"/>
<path class="st14" d="M645.74,411.03c-4.79,4.29-9.16,4.52-13.84,0.87c-0.69-0.54-1.83-1-2.54-0.74c-8.04,2.95-16.8-0.9-24.79,4.11
	c-4.65,2.92-9.96,0.39-14.76-1.73c-1.01-1.74-0.72-3.7-0.39-5.47c2.78-14.54-0.41-28.68-1.38-43.59c-5.24,4.24-7.66,9.47-9.12,15.33
	c-2.1,8.44-3.32,17.09-4.36,25.77c-2.11,2.63-5.17,1-7.6,2.19c-2.92-0.45-3.99-2.41-3.83-5.65c0.25-5.01,0.37-10.03,0.54-15.05
	c0.65-0.81,0.75-1.7,0.26-2.66c1.38-6.75,2.76-13.5,4.14-20.25c2.69-0.89,3.32-3.26,3.36-6.05c5.77-12.08,11.28-24.3,21.29-32.97
	c2.47-2.14,5.16-2.37,7.69-3.64c-0.02,1.09,0.08,2.11,1.19,2.5c0.63,1.45,0.68,2.92,0.12,4.41c-0.18,5.67-0.96,11.37,0.51,16.98
	c1.08,19.61,2.23,39.21,3.16,58.82c0.2,4.16,1.39,6.08,5.22,5.82c5.32-0.36,10.66-0.55,15.99-0.56c4.27,0,5.61-2.05,5.47-6.9
	c-0.47-15.24-0.53-30.5-0.75-45.75c0.52-0.18,1.39-0.21,1.51-0.56c3.63-10.75,6.69-21.55,0.89-32.63c2.25,0.95,4.19,2.3,5.89,4.37
	c11.17,13.65,22.44,27.15,26.37,46.17c1.57,7.58,4.25,14.85,4.54,22.8c0.13,3.42-0.68,5.57-3.81,6.14
	c-2.14,0.08-4.28,0.16-6.42,0.24c-2.61-8.52-3.97-17.46-7.72-25.63c-2.63-5.72-5.36-11.15-9.95-16.83c0,3.16,0.03,5.15,0,7.14
	C642.34,382.49,644.96,396.67,645.74,411.03z"/>
<path class="st0" d="M587.71,529.6c-0.07,0.76-0.13,1.51-0.2,2.27c-0.75,1.96-0.22,2.86,1.69,2.62c0,0-0.08,0.25-0.08,0.25
	c0.04,3.27,0.08,6.54,0.11,9.81c-0.18,1.66-0.72,3.36,0.33,4.92c-0.61,1.77-2,1.59-3.24,1.58c-11.7-0.07-23.4-0.18-35.1-0.27
	c0.07-0.44,0.13-0.88,0.2-1.32c2.09-1.55,1.15-3.93,1.28-6.02c0.12-1.34,0.24-2.67,0.36-4.01c1.08-2.58-0.98-2.72-2.14-3.25
	c-2.36-1.07-4.81-1.86-7.22-2.77c1.52-1.74,3.03-3.48,4.55-5.22c3.01-0.29,3.45-2.53,3.16-5.34c0.83-2.84,1.67-5.67,2.5-8.51
	c3.08-2.62,3.32-5.15-0.17-7.57c-1.85-5.99-6.26-9.63-9.96-13.92c-0.18-2.58-1.81-2.49-3.44-2.41c-1.09-0.5-1.8-1.39-2.1-2.69
	c-0.22-0.35-0.44-0.7-0.66-1.06c-0.81-1.58-1.67-3.14-1.46-5.1c6.3-0.36,12.34-0.45,17.14,5.8c2.58,3.36,6.52,2.25,10.25,1.89
	c8.4-0.8,16.81,0.11,25.2,1c0.25,1.68-0.47,3.48,0.53,5.05c0.02,1.7,0.05,3.4,0.07,5.1c-0.34,4.24-0.68,8.47-1.02,12.71
	C587.72,518.61,587.26,524.08,587.71,529.6z"/>
<path class="st9" d="M601.71,328.42c0.56-1.49,0.5-2.96-0.12-4.4c0.18-0.87,0.35-1.73,0.53-2.6c0.55-0.34,1.09-0.68,1.64-1.02
	c1.88,0.33,3.54,2.09,5.63,1.12l-0.14-0.03c0.2,1.44,1.14,1.48,2.12,1.47c6.46,3.5,12.04,3.33,15.7-4.86
	c0.01-0.03,0.33,0.11,0.5,0.17c0.55,1.18,1.09,2.36,1.64,3.54c0.47,4.95-0.16,10.02,1.23,14.88c0.29,6.71,0.59,13.43,0.88,20.14
	c0.22,15.25,0.29,30.51,0.75,45.75c0.15,4.85-1.2,6.9-5.47,6.9c-5.33,0-10.67,0.2-15.99,0.56c-3.83,0.26-5.02-1.66-5.22-5.82
	c-0.93-19.61-2.09-39.22-3.16-58.82C602.47,339.72,602.54,334.05,601.71,328.42z M614.58,362.85c-0.23,0-0.47,0-0.7,0
	c0,7.74-0.12,15.48,0.04,23.21c0.11,5.22,2.36,9.64,5.6,13.01c1.16,1.2,4.51-8.76,4.47-13.68c-0.13-17.71-5.12-35.06-3-52.93
	c0.22-1.85-1.41-2.23-2.46-2.98c-1.28-0.91-2.43-0.55-3.51,0.53c-1.05,1.05-1.86,2.16-0.83,3.73c2.09,3.2,1.36,6.77,1.18,10.3
	C615.05,350.3,614.83,356.57,614.58,362.85z"/>
<path class="st5" d="M609.38,321.51c-2.08,0.97-3.74-0.79-5.63-1.12c2.37-6.9,3.44-14.09,3.74-21.45c1.3-0.03,2.59-0.07,3.89-0.1
	c-0.04,4.53,0.17,9.64,5.27,9.58c3.78-0.04,7.33-3.12,12.8-3.78c-7.36-0.82-12.64-3.63-18.09-5.78c2.86-5.16,7.3-5.42,11.85-4.58
	c3.74,0.69,7.81,1.34,8.17,7.18c0.66,5.28-2.04,9.48-3.5,14.08c-4.91-1.27-9.79-2.82-14.75-3.68c-1.76-0.3-2.83-4.18-4.52-1.65
	c-1,1.49-0.64,4.35-0.5,6.57C608.2,318.38,608.93,319.93,609.38,321.51z"/>
<path class="st14" d="M631.38,301.46c-0.36-5.85-4.43-6.5-8.17-7.18c-4.56-0.84-9-0.58-11.85,4.58l0.02-0.02
	c-1.3,0.03-2.59,0.07-3.89,0.1c2.54-13.36,16.19-19.36,26.18-11.52c3.1,2.43,2.82,5.49,1.41,8.76
	C634.2,298.23,633.11,300.15,631.38,301.46z"/>
<path class="st14" d="M609.38,321.51c-0.45-1.58-1.18-3.13-1.28-4.73c-0.14-2.21-0.5-5.07,0.5-6.57c1.69-2.53,2.76,1.35,4.52,1.65
	c4.97,0.86,9.84,2.4,14.75,3.68c-0.1,0.91-0.21,1.81-0.32,2.72c-0.17-0.05-0.49-0.2-0.5-0.16c-3.66,8.19-9.24,8.36-15.7,4.86
	c-0.54-0.79-1-1.74-2.12-1.47L609.38,321.51z"/>
<path class="st12" d="M631.3,356.83c-0.29-6.71-0.59-13.43-0.88-20.14c2.16-4.49,0.41-9.36,1.06-14c0.8,0.12,1.71-0.07,2.21,0.95
	c5.8,11.09,2.73,21.88-0.89,32.63C632.69,356.62,631.82,356.65,631.3,356.83z"/>
<path class="st2" d="M669.14,427.47c0.06,2.06,0.12,4.13,0.19,6.19c-2.06,3.88-4.82,6.58-8.88,4.25c-2.97-1.71-4.79-4.99-2.95-8.82
	c1.7-3.55,4.44-5.5,8.23-3.41C666.85,426.3,668,426.87,669.14,427.47z"/>
<path class="st5" d="M566.95,407.76c2.43-1.19,5.49,0.44,7.6-2.19c-0.64,3.95,2.96,5.6,3.69,8.8c-0.64,1.78,0.38,4.08-1.36,5.51
	C568.64,419.33,567.29,417.69,566.95,407.76z"/>
<path class="st5" d="M660.27,403.36c2.14-0.08,4.28-0.16,6.42-0.24c1.83,8.72-3.11,12.39-8.92,15.4c-0.31-2.49-0.62-4.97-0.93-7.46
	C657.1,407.98,659.17,405.95,660.27,403.36z"/>
<path class="st7" d="M636,484.09c0.05-3.39-1.03-6.92,0.91-10.09c4.45,3.42,9.57,5.19,14.44,7.56
	C646.52,484.63,640.85,481.21,636,484.09z"/>
<path class="st2" d="M530.51,489.23c-0.19,4.24-0.39,8.48-0.6,13.09c-5.56-5.39-6.09-11.33-2.06-18.79
	C528.56,485.54,527.29,488.73,530.51,489.23z"/>
<path class="st2" d="M668.38,451.14c-2.75-0.62-3.88-2.3-3.74-5.36c0.14-2.97,1.7-3.24,3.74-3.26c2.62-0.02,3.78,1.89,3.78,4.33
	C672.16,449.44,670.51,450.87,668.38,451.14z"/>
<path class="st2" d="M572.86,436.04c-2.35-0.77-4.5-2.1-4.19-5c0.27-2.57,2.67-3.41,4.67-3.34c1.99,0.07,3.51,1.83,3.44,4.1
	C576.71,434.34,575.1,435.8,572.86,436.04z"/>
<path class="st10" d="M590.49,464.06c0.72,5.5,1.83,11.03-0.65,16.37C589.22,474.92,589.22,469.46,590.49,464.06z"/>
<path class="st14" d="M589.33,500.44c-0.02-1.7-0.05-3.4-0.07-5.1c1.24-2,1.16-4.04,0.14-6.11c0.19-2.12,0.38-4.24,0.57-6.36
	C592.43,487.72,592.08,497.34,589.33,500.44z"/>
<path class="st14" d="M631.49,322.69c-0.65,4.64,1.09,9.51-1.06,14c-1.39-4.85-0.76-9.92-1.23-14.88
	C630.14,321.47,630.97,321.54,631.49,322.69z"/>
<path class="st7" d="M637.66,461.95c0.09-1.02,0.18-2.03,0.28-3.05c0.73-1.09,1.47-2.18,2.37-3.53c2.88,4.56-1.49,7.3-1.93,10.97
	C638.14,464.88,637.9,463.41,637.66,461.95z"/>
<path class="st5" d="M571.42,358.11c-0.04,2.79-0.68,5.15-3.36,6.05C568.28,361.5,568.39,358.76,571.42,358.11z"/>
<path class="st10" d="M589.4,489.23c1.02,2.07,1.1,4.11-0.14,6.11c-1-1.57-0.28-3.38-0.53-5.05
	C588.95,489.93,589.18,489.58,589.4,489.23z"/>
<path class="st12" d="M602.11,321.41c-0.18,0.87-0.35,1.74-0.53,2.6c-1.11-0.4-1.21-1.42-1.19-2.5
	C600.97,321.48,601.54,321.44,602.11,321.41z"/>
<path class="st10" d="M591.61,437.86c-0.06,1.51-0.11,3.03-0.17,4.54C590.61,440.85,590.62,439.33,591.61,437.86z"/>
<path class="st5" d="M563.91,384.41c0.49,0.96,0.39,1.84-0.26,2.66C562.32,386,562.78,385.16,563.91,384.41z"/>
<path class="st0" d="M830.97,414.88c-40.29-0.04-80.59-0.07-120.88-0.11c-9.94-0.01-11.11-1.3-11.12-12.61
	c-0.01-42.4,0-84.81,0.02-127.21c0-11.65,0.91-12.69,11-12.71c50.64-0.06,101.28-0.11,151.93-0.16c29.38,0.09,58.76,0.18,88.14,0.27
	c7.78,0.02,8.05,0.62,8.6,9.05c2.27,34.76-1.36,69.5-0.09,104.25c0.31,8.35,1.66,16.63,1.12,25.04
	c-0.88,13.55-3.77,14.26-12.29,14.21C908.59,414.66,869.78,414.85,830.97,414.88z M803.17,321.75c-5.53-1.29-6.72,1.54-6.65,7.47
	c0.28,23.07,0.09,46.15,0.07,69.22c-1.62,0.03-3.43,0.6-4.83-0.02c-3.63-1.62-7.09-2.08-10.64,0.03c0-27.14,0.03-54.29-0.02-81.43
	c-0.01-7.23-2.51-10.31-7.95-10.24c-4.85-1.06-6.48,1.13-6.43,6.75c0.22,28.31,0.14,56.62,0.17,84.93
	c-2.38-0.68-5.63,1.96-7.08-2.43c-0.27-0.83-1.28-1.21-1.63-0.17c-1.43,4.29-4.58,2.14-7.03,2.57c0-33.63-0.09-67.27,0.09-100.9
	c0.03-4.96-1.2-7.04-5.57-6.22c-10.42-0.06-8.85-0.95-8.88,9.87c-0.09,32.39-0.07,64.79-0.1,97.18c-3.18,0.06-6.81,1.19-7.26-4.29
	c-1.71,0.43-1.43,1.72-1.8,2.59c-1.23,2.87-3.53,1.52-5.4,1.62c-1.29,0.07-2.08-0.95-1.8-2.47c1.91-10.12,0.02-20.21-0.41-30.27
	c-0.23-5.42,1.5-10.38,1.32-15.74c-0.33-9.9-0.37-19.83-0.15-29.74c0.23-10.27-1.23-20.32-1.42-30.68
	c-1.78,0.53-1.83,1.43-1.83,2.21c-0.04,14.26-0.06,28.53-0.07,42.79c-0.01,12.71,0.36,25.44-0.14,38.13
	c-0.31,7.92,0.7,15.77,0.14,23.66c-0.3,4.23,1.17,6,5.07,6.08c4.65,0.1,9.15-0.88,13.73-1.26c65.95,0,131.91,0,198.21,0
	c-0.69-2.63-1.72-2.38-2.57-2.45c-8.82-0.72-9.03-0.96-9.24-11.24c-0.04-1.68-0.01-3.36-0.08-5.04c-0.05-1.4-0.68-2.17-1.92-2.63
	c-7.35-2.74-11.26,0.38-11.27,9.07c0,1.68,0.06,3.36-0.03,5.04c-0.09,1.59,0.5,3.64-1.33,4.38c-1.56,0.63-3.28,0.95-4.2-1.44
	c-0.93-2.42-1.66-1.65-2.36,0.23c-0.77,2.08-2.42,1.71-3.82,1.38c-1.95-0.46-1.72-2.43-1.73-4.07c-0.03-7.77-0.21-15.54,0.04-23.3
	c0.16-4.91-1.37-7.08-5.75-6.56c-1.46,0.17-2.97,0.11-4.43-0.06c-3.14-0.36-4.27,1.15-4.2,4.69c0.15,7.97,0.1,15.95,0.01,23.93
	c-0.02,1.92,0.86,4.72-1.67,5.28c-1.97,0.44-4.47,1.53-5.96-1.37c-0.58-1.13-1.19-2.7-2.1-0.69c-0.83,1.83-1.68,2.77-3.37,1.98
	c-1.8-0.83-1.3-2.81-1.31-4.4c-0.04-10.71,0.03-21.41-0.04-32.12c-0.07-10.66,1.46-9.46-8.56-9.81c-3.63-0.13-4.85,1.18-4.77,5.34
	c0.2,11.54,0.14,23.09,0.02,34.63c-0.02,2.25,1.3,5.8-1.75,6.39c-2.59,0.5-5.97,2.14-8.03-1.56c-1.24-2.23-1.78-1.52-2.39,0.32
	c-0.63,1.87-2.02,1.46-3.28,1.44c0-19.17-0.06-38.33,0.05-57.5c0.02-3.82-0.63-6.16-4.52-5.4c-10.3-0.07-8.87-1.37-8.92,9.69
	c-0.08,15.86,0.01,31.72-0.06,47.58c-0.01,1.91,0.91,4.66-1.47,5.42c-2.21,0.7-5.54,1.65-6.71-0.64c-2.36-4.6-3.13-1.98-4.63,0.39
	c-0.36,0.57-1.7,0.35-2.59,0.5c0-23.03-0.14-46.06,0.09-69.09C810.12,323.38,808.71,320.48,803.17,321.75z M913.21,329.63
	c-0.43-0.65-0.74-1.48-1.29-1.93c-9.4-7.66-19-15.02-28.18-23.02c-4.27-3.72-9.31-6.29-12.48-11.93c-2.43-4.33-9.9-3.05-11.03,1.76
	c-1.42,6.05-5.05,10.11-8.08,14.75c-3.99,6.1-4.81,6.06-10.19,1.68c-13.27-10.79-26.66-21.4-39.87-32.29
	c-2.86-2.36-3.67-0.26-5.12,1.71c-1.55,2.12-2.93,3.85-0.12,6.09c8.24,6.6,16.69,12.92,24.55,20.08
	c7.09,6.46,15.64,10.87,21.16,19.61c2.95,4.66,9.66,4,11.5-1.25c2.4-6.85,6.57-11.81,10.95-16.93c2.42-2.83,3.72-2.76,6.3-0.63
	c11.42,9.44,22.98,18.66,34.54,27.89c1.33,1.06,2.2,2.16,2.08,4.05c-1.75,1.79-3.57,3.5-5.22,5.39c-1.55,1.77-1.03,2.84,1.08,3.24
	c9.24,1.75,18.47,3.51,27.69,5.33c3.72,0.74,4.53-1.16,2.73-4.33c-2.4-4.25-3.79-8.91-5.26-13.57c-1.59-5.04-3.25-10.06-4.98-15.43
	C920.13,323.48,917.97,328.45,913.21,329.63z"/>
<path class="st11" d="M553.06,539.43c-0.12,1.34-0.24,2.67-0.36,4.01c-1.13,0.07-2.27,0.14-3.4,0.22c2.32,1.36,2.45,3.47,2.12,5.81
	c-0.07,0.44-0.13,0.88-0.2,1.32c-7.85,0.04-15.7-0.03-23.54,0.17c-2.41,0.06-4.26-0.63-5.67-2.84c-0.02-0.68-0.04-1.35-0.06-2.03
	c0.7-3.77,1.4-7.55,2.1-11.32c0,0,0.03,0,0.03,0c0.64-0.53,1.28-1.05,1.92-1.57c0.72-0.33,1.43-0.66,2.15-0.99
	c1.52,0.24,3.04,0.47,4.55,0.71C538.89,537.49,545.91,538.73,553.06,539.43z"/>
<path class="st15" d="M521.95,546.08c0.02,0.67,0.04,1.35,0.06,2.03c-2.62,4.4-6.65,3.37-9.91,2.33c-3.16-1.01-1.54-5.03-1.58-7.67
	c-0.14-8.76,1.95-11.78,8.23-12.83c1.13,0.15,2.27,0.29,3.41,0.43c0,0,0.02,0,0.02,0c0.87,0.17,1.74,0.34,2.61,0.51
	c0.03,0.72,0.07,1.44,0.1,2.17c-0.27,0.57-0.53,1.14-0.8,1.71c0,0-0.03,0-0.03,0C519.47,537.6,521.97,542.14,521.95,546.08z"/>
<path class="st13" d="M553.06,539.43c-7.16-0.7-14.18-1.93-20.36-6.53c3.73-1.63,7.3,1.38,11,0.52c2.41,0.91,4.86,1.71,7.22,2.77
	C552.09,536.71,554.14,536.84,553.06,539.43z"/>
<path class="st6" d="M553.75,506.76c3.49,2.42,3.25,4.96,0.17,7.57C553.86,511.81,553.8,509.29,553.75,506.76z"/>
<path class="st6" d="M551.41,522.85c0.29,2.81-0.15,5.05-3.16,5.34C548.94,526.13,548.9,523.51,551.41,522.85z"/>
<path class="st13" d="M524.89,533.05c-0.03-0.72-0.07-1.44-0.1-2.17c1.32-0.21,2.69-0.62,3.36,1.3c-0.72,0.33-1.44,0.66-2.15,1
	C525.63,533.14,525.26,533.09,524.89,533.05z"/>
<path class="st6" d="M540.35,490.43c1.63-0.08,3.26-0.16,3.44,2.41C542.1,493.03,540.96,492.22,540.35,490.43z"/>
<path class="st10" d="M522.17,530.37c0,0-0.02,0-0.02,0C522.16,530.37,522.17,530.37,522.17,530.37z"/>
<path class="st6" d="M537.59,486.69c0.22,0.35,0.44,0.7,0.66,1.06C538.03,487.39,537.81,487.04,537.59,486.69z"/>
<path class="st15" d="M680.88,498.02c0.14-1.72,0.28-3.44,0.42-5.16c2.53-0.34,2.22-2.79,2.67-4.67c6.64-0.65,12.18-5.05,18.44-7.03
	c7.11-2.24,7.89-1.05,11.5,5.83c5.25,10,4.54,19.13-1.47,27.63c-5.24,7.42-5.46,13.81,1.29,20.49c1.37-5.47,2.94-10.96,4.08-16.56
	c0.53-2.61,1.74-3.95,3.73-4.92c5.56-2.72,11.08-5.57,16.66-8.24c2.02-0.97,3.37-2.34,3.88-4.85c0.71-3.46,1.54-6.9,2.4-10.32
	c2.19-8.74,2.25-8.82,8.75-3.4c4.92,4.1,7.3,10.36,10.14,16.19c0.18,0.89,0.37,1.79,0.55,2.69c-0.01,0.7-0.03,1.4-0.04,2.1
	c-6.92,6.8-6.06,15.01-3.29,23.56c-3.21,4.52-6.61,8.78-11.72,10.6c-6.84,3.21-15.47,1.07-20.74,8.94c-2.4-0.02-4.8-0.03-7.19-0.05
	c-0.57-4.97,1.21-11.63-6.71-11.56c1.56,4.95-0.9,6.34-4.43,5.59c-4.61-0.98-7.32,0.63-8.18,5.93c-2.17,0.04-4.33,0.08-6.5,0.12
	c-2.52-7.74-5.36-15.13-13.81-16.41c-5.92-5.18-8.62-13.3-13.76-19.27c-3.57-4.14-0.85-11.31,4.36-12.13
	c3.25-0.52,5.96-1.9,8.34-4.33C680.77,498.87,681,498.63,680.88,498.02z"/>
<path class="st3" d="M618.3,528.23c-0.21,2.51-1.24,5.35,2.03,6.45c-0.03,3.25-0.05,6.5-0.08,9.76c-2.05,1.82-0.73,4.16-0.69,6.32
	c-5.54,0-11.03,0-16.52,0c-0.89-4.24-5.02-3.84-7.09-6.38c0.35-2.87,0.7-5.74,1.05-8.61c2.74-0.22,3.4-2.29,3.85-5
	c2.43-14.31,5.01-28.59,7.53-42.87c3.01,0.04,6.08,0.29,8.43-2.51c0.44,8.38,0.88,16.76,1.32,25.15
	C618.19,516.43,618.25,522.33,618.3,528.23z"/>
<path class="st11" d="M767.01,539.6c6.24-1.22,12.48-2.43,18.72-3.65c-0.44,3.29,2.79,5.09,2.6,8.28c-0.78,1.06-0.78,2.13,0,3.19
	c-0.01,0.66-0.01,1.31-0.02,1.97c-3.88,3.33-8.44,2.85-12.74,2.3c-4.03-0.52-8.05-0.61-12.08-0.84
	C761.3,545.74,760.78,541.3,767.01,539.6z"/>
<path class="st3" d="M681.3,534.52c8.46,1.29,11.3,8.67,13.81,16.41c-0.54-0.04-1.08-0.09-1.62-0.13c-0.38-0.69-0.75-0.66-1.1,0.03
	c-3.7,0-7.39,0.01-11.09,0.01c-0.24-3.4-2.3-3.8-4.71-3.78c-4.78,0.04-9.56,0.04-14.35-0.01c-1.64-0.02-3.88,0-3.58-2.55
	c0.23-1.93,2.25-2.24,4.04-2.23c4.17,0.03,8.34-0.04,12.5-0.28C679.25,541.76,681.85,539.73,681.3,534.52z"/>
<path class="st15" d="M788.33,544.22c0.19-3.19-3.04-4.99-2.6-8.28c3.35-2.12,7.22-1.24,10.74-2.39c0.08,1.17,0.17,2.34,0.26,3.5
	c0.14,0.42,0.28,0.84,0.42,1.26c0.31,0.77,0.63,1.54,0.94,2.31c-0.31,1.04-0.22,1.95,0.7,2.55c0.03,2.15,0.06,4.3,0.09,6.45
	c-3.56,1.74-7.1,2.3-10.58-0.25c0.01-0.65,0.01-1.31,0.02-1.97C788.81,546.35,788.81,545.29,788.33,544.22z"/>
<path class="st3" d="M728.12,550.9c5.28-7.88,13.91-5.73,20.74-8.94c6.26-0.97,4.14,6.27,6.76,8.88
	C746.46,550.86,737.29,550.88,728.12,550.9z"/>
<path class="st1" d="M755.63,550.83c-2.62-2.6-0.5-9.85-6.76-8.88c5.11-1.82,8.51-6.07,11.72-10.6c1.89,3,3.5,6.27,6.42,8.23
	c-6.23,1.71-5.7,6.14-3.53,11.25C760.86,550.84,758.24,550.84,755.63,550.83z"/>
<path class="st0" d="M939.55,533.1c1.95,1.68,1.08,4.11,1.26,6.25c0.24,2.84,0.1,5.9,3.5,6.53c0.29,0.32,0.58,0.65,0.87,0.96
	c0.3,1.08,0.97,1.55,1.95,1.53c0,0,0.31,0.36,0.31,0.36c0.03,0.75,0.07,1.5,0.1,2.25c-7.05-0.01-14.1-0.03-21.15-0.04
	c0.69-1.4,2.6-2.01,2.11-4.18c0.34-0.89,0.95-1.31,1.79-1.34c6.49,1.83,4.77-3.58,4.98-7.29
	C936.69,536.45,938.12,534.78,939.55,533.1z"/>
<path class="st3" d="M701.61,550.81c0.87-5.3,3.57-6.91,8.18-5.93c3.53,0.75,5.99-0.64,4.43-5.59c7.91-0.07,6.14,6.59,6.71,11.56
	C714.49,550.84,708.05,550.82,701.61,550.81z"/>
<path class="st2" d="M620.25,544.44c0.03-3.25,0.05-6.5,0.08-9.76c-0.09-0.23-0.13-0.46-0.11-0.71c2.63,0.33,5.25,0.66,7.88,0.99
	c0.02,3.12,0.04,6.23,0.07,9.35C625.53,544.35,622.89,544.39,620.25,544.44z"/>
<path class="st12" d="M595.95,544.38c2.08,2.54,6.2,2.14,7.09,6.38c-4.62,1.21-9.03-0.35-13.48-1.29c-1.05-1.56-0.51-3.26-0.33-4.92
	C591.47,544.49,593.71,544.44,595.95,544.38z"/>
<path class="st12" d="M628.37,545.18c2.34,1.1,4.61,2.33,6.24,4.65c-3.31,2.42-6.95,0.81-10.43,1.06c-1.13,0.08-2.32-0.68-2.49-1.95
	c-0.28-2.17,1.48-1.77,2.59-2.16C625.66,546.3,627.01,545.72,628.37,545.18z"/>
<path class="st6" d="M928.5,546.76c0.49,2.17-1.43,2.78-2.11,4.18c-1.5,0.02-3,0.03-4.5,0.05
	C923.68,548.75,926.05,547.66,928.5,546.76z"/>
<path class="st2" d="M947.54,550.98c-0.03-0.75-0.07-1.5-0.1-2.25c1.53,0.12,3.05,0.23,4.58,0.35c-0.04,0.56-0.08,1.12-0.12,1.68
	C950.45,550.83,948.99,550.91,947.54,550.98z"/>
<path class="st0" d="M692.39,550.84c0.35-0.7,0.72-0.73,1.1-0.03C693.12,550.81,692.76,550.82,692.39,550.84z"/>
<path class="st7" d="M778.71,494.73c1.38-1.52,2.75-3.04,4.14-4.56c1.7,6.1,1,12.23,0.35,18.43
	C780.95,504.19,783.34,498.04,778.71,494.73z"/>
<path class="st7" d="M763.92,505.71c-0.18-0.9-0.37-1.79-0.55-2.69c2.68,0.03,5.36,0.06,8.04,0.09c-1.7,2.72-4.05,4.08-6.95,4.3
	C764.28,506.85,764.1,506.28,763.92,505.71z"/>
<path class="st7" d="M782.79,486.84c-2.32-3.25-3.43-6.39,0.66-9.04C783.43,480.83,783.9,483.91,782.79,486.84z"/>
<path class="st0" d="M763.92,505.71c0.18,0.57,0.36,1.14,0.54,1.71c-0.17,0.18-0.36,0.31-0.58,0.39
	C763.89,507.11,763.9,506.41,763.92,505.71z"/>
<path class="st10" d="M798.79,543.18c-0.92-0.6-1.01-1.51-0.7-2.55C798.96,541.25,799.1,542.14,798.79,543.18z"/>
<path class="st10" d="M797.14,538.32c-0.14-0.42-0.28-0.84-0.42-1.26c0.21,0.26,0.45,0.49,0.62,0.78
	C797.38,537.92,797.21,538.16,797.14,538.32z"/>
<path class="st2" d="M947.14,548.38c-0.98,0.02-1.65-0.46-1.95-1.53C946.83,545.72,947.32,546.49,947.14,548.38z"/>
<path class="st14" d="M628.1,534.96c-2.63-0.33-5.25-0.66-7.88-0.99c2.53-4.12,6.97-0.76,9.91-3.27
	C630.93,533.03,630.31,534.48,628.1,534.96z"/>
<path class="st4" d="M683.97,488.2c-0.46,1.88-0.14,4.32-2.67,4.67C680.01,489.7,681.06,488.26,683.97,488.2z"/>
<path class="st14" d="M631.6,519.46c-1.78-2.26-2.4-4.21,1.06-5.06C632.64,516.18,633.4,518.16,631.6,519.46z"/>
<path class="st14" d="M630.49,528.29c-2.32-2.19-0.32-2.94,1.01-3.91C631.7,525.86,632.09,527.4,630.49,528.29z"/>
<path class="st4" d="M680.88,498.02c0.12,0.61-0.11,0.85-0.64,0.76C680.33,498.4,680.55,498.15,680.88,498.02z"/>
<path class="st1" d="M578.23,414.37c-0.73-3.21-4.33-4.86-3.69-8.8c1.04-8.68,2.26-17.33,4.36-25.77
	c1.46-5.85,3.88-11.09,9.12-15.33c0.97,14.91,4.16,29.05,1.38,43.59c-0.34,1.77-0.62,3.73,0.39,5.47
	C586.12,416.98,582.09,414.14,578.23,414.37z"/>
<path class="st1" d="M660.27,403.36c-1.1,2.59-3.18,4.62-3.43,7.7c-3.7-0.08-7.41,1.3-11.1-0.03c-0.78-14.36-3.4-28.54-3.14-42.99
	c0.04-1.99,0-3.97,0-7.14c4.59,5.67,7.33,11.11,9.95,16.83C656.3,385.89,657.67,394.84,660.27,403.36z"/>
<path class="st1" d="M616.82,485.38c-2.35,2.81-5.42,2.56-8.43,2.51c-0.08-3.1,0.58-6.04,1.43-8.95c1.45-0.53,1.72-1.32,0.42-2.45
	c0.2-8.76,2.96-16.93,4.54-25.37c0.5,0.2,1,0.4,1.5,0.6c0.19,5.77,0.38,11.53,0.57,17.3c-0.1,0.11-0.29,0.25-0.27,0.33
	c0.06,0.28,0.2,0.54,0.31,0.81C616.86,475.24,616.84,480.31,616.82,485.38z"/>
<path class="st5" d="M595.95,544.38c-2.24,0.05-4.48,0.11-6.72,0.16c-0.04-3.27-0.08-6.54-0.11-9.81c2.7-0.35,5.31,0.15,7.89,1.04
	C596.65,538.64,596.3,541.51,595.95,544.38z"/>
<path class="st14" d="M618.3,528.23c-0.05-5.9-0.11-11.8-0.16-17.7c0.8-0.16,2.02-0.96,2.06,0.68c0.14,5.73,0.35,11.49-0.01,17.19
	C620.02,531.07,618.98,528.21,618.3,528.23z"/>
<path class="st10" d="M587.71,529.6c-0.45-5.51,0.01-10.99,0.6-16.45C589.15,518.68,589.91,524.21,587.71,529.6z"/>
<path class="st10" d="M616.28,451.72c-0.5-0.2-1-0.4-1.5-0.6c-0.21-1.6-0.22-3.13,1.04-4.66C617.31,448.34,617,450.01,616.28,451.72
	z"/>
<path class="st10" d="M589.2,534.48c-1.91,0.25-2.44-0.65-1.69-2.62C588.5,532.39,588.93,533.37,589.2,534.48z"/>
<path class="st3" d="M610.23,476.5c1.31,1.13,1.04,1.92-0.42,2.45C609.95,478.13,610.09,477.31,610.23,476.5z"/>
<path class="st10" d="M616.88,470.16c-0.11-0.27-0.24-0.53-0.31-0.81c-0.02-0.08,0.18-0.22,0.27-0.33
	C617.07,469.39,617.08,469.77,616.88,470.16z"/>
<path class="st12" d="M601.71,328.42c0.84,5.63,0.76,11.3,0.51,16.98C600.75,339.79,601.53,334.09,601.71,328.42z"/>
<path class="st13" d="M551.42,549.46c0.34-2.34,0.2-4.44-2.12-5.81c1.13-0.07,2.27-0.14,3.4-0.22
	C552.57,545.52,553.51,547.91,551.42,549.46z"/>
<path class="st14" d="M614.58,362.85c0.26-6.27,0.48-12.54,0.79-18.81c0.18-3.53,0.91-7.1-1.18-10.3c-1.03-1.57-0.22-2.68,0.83-3.73
	c1.09-1.08,2.23-1.44,3.51-0.53c1.05,0.75,2.68,1.13,2.46,2.98c-2.12,17.87,2.87,35.22,3,52.93c0.04,4.91-3.31,14.88-4.47,13.68
	c-3.24-3.37-5.5-7.79-5.6-13.01c-0.16-7.73-0.04-15.47-0.04-23.21C614.11,362.85,614.34,362.85,614.58,362.85z"/>
<path class="st5" d="M609.24,321.48c1.12-0.27,1.57,0.68,2.12,1.47C610.38,322.96,609.43,322.92,609.24,321.48z"/>
<path class="st10" d="M611.35,298.85c5.45,2.15,10.73,4.96,18.09,5.78c-5.47,0.66-9.02,3.74-12.8,3.78
	c-5.1,0.06-5.32-5.06-5.27-9.58C611.38,298.84,611.35,298.85,611.35,298.85z"/>
<path class="st5" d="M838.83,398.37c1.26,0.02,2.66,0.43,3.28-1.44c0.61-1.83,1.15-2.54,2.39-0.32c2.06,3.7,5.44,2.05,8.03,1.56
	c3.05-0.58,1.73-4.14,1.75-6.39c0.13-11.54,0.19-23.09-0.02-34.63c-0.07-4.16,1.15-5.47,4.77-5.34c10.03,0.35,8.49-0.85,8.56,9.81
	c0.07,10.71,0,21.41,0.04,32.12c0.01,1.58-0.5,3.56,1.31,4.4c1.69,0.78,2.54-0.16,3.37-1.98c0.91-2.01,1.52-0.43,2.1,0.69
	c1.49,2.9,3.99,1.81,5.96,1.37c2.53-0.56,1.65-3.36,1.67-5.28c0.09-7.98,0.14-15.96-0.01-23.93c-0.07-3.54,1.06-5.06,4.2-4.69
	c1.47,0.17,2.97,0.23,4.43,0.06c4.38-0.52,5.91,1.65,5.75,6.56c-0.25,7.76-0.07,15.53-0.04,23.3c0.01,1.64-0.22,3.62,1.73,4.07
	c1.39,0.33,3.04,0.71,3.82-1.38c0.7-1.88,1.42-2.64,2.36-0.23c0.92,2.39,2.64,2.07,4.2,1.44c1.83-0.74,1.24-2.79,1.33-4.38
	c0.09-1.67,0.03-3.36,0.03-5.04c0.02-8.69,3.93-11.8,11.27-9.07c1.24,0.46,1.87,1.24,1.92,2.63c0.06,1.68,0.04,3.36,0.08,5.04
	c0.22,10.27,0.42,10.52,9.24,11.24c0.85,0.07,1.88-0.18,2.57,2.45c-66.3,0-132.26,0-198.21,0c0-0.88,0-1.75,0-2.63
	c0.02-32.39,0-64.79,0.1-97.18c0.03-10.82-1.54-9.93,8.88-9.87c-1.63,7.64-0.02,15.28-0.02,22.92c0,25.97,0.12,51.95-0.1,77.92
	c-0.04,5.04,1.32,6.95,5.6,6.28c2.45-0.44,5.59,1.72,7.03-2.57c0.35-1.03,1.35-0.66,1.63,0.17c1.45,4.39,4.69,1.75,7.08,2.43
	c2.16-0.01,4.32-0.03,6.49-0.04c2.58,0.01,5.17,0.01,7.75,0.02c3.55-2.12,7.01-1.65,10.64-0.03c1.4,0.62,3.21,0.05,4.83,0.02
	c1.87,0,3.74,0,5.61,0c2.59-0.01,5.18-0.01,7.77-0.02c0.89-0.14,2.22,0.08,2.59-0.5c1.5-2.37,2.27-4.99,4.63-0.39
	c1.17,2.28,4.5,1.34,6.71,0.64c2.38-0.76,1.47-3.51,1.47-5.42c0.07-15.86-0.02-31.72,0.06-47.58c0.05-11.06-1.37-9.76,8.92-9.69
	c0.01,6.66,0.54,13.39-0.09,19.97c-1.34,13.88,4.59,27.27,1.74,41.2C835.57,398.78,837.67,398.21,838.83,398.37z"/>
<path class="st10" d="M907.92,339.28c0.12-1.89-0.75-2.99-2.08-4.05c-11.56-9.23-23.11-18.45-34.54-27.89
	c-2.58-2.13-3.88-2.2-6.3,0.63c-4.38,5.12-8.56,10.08-10.95,16.93c-1.84,5.26-8.55,5.91-11.5,1.25
	c-5.52-8.74-14.07-13.14-21.16-19.61c-7.85-7.16-16.3-13.48-24.55-20.08c-2.8-2.24-1.43-3.98,0.12-6.09
	c1.45-1.97,2.26-4.07,5.12-1.71c13.21,10.89,26.59,21.5,39.87,32.29c5.39,4.38,6.21,4.42,10.19-1.68c3.03-4.64,6.66-8.71,8.08-14.75
	c1.13-4.81,8.6-6.09,11.03-1.76c3.17,5.64,8.21,8.21,12.48,11.93c9.17,7.99,18.78,15.36,28.18,23.02c0.55,0.45,0.87,1.28,1.29,1.93
	C911.45,332.85,909.69,336.06,907.92,339.28z"/>
<path class="st13" d="M773.37,398.44c-2.16,0.01-4.33,0.02-6.49,0.04c-0.03-28.31,0.05-56.62-0.17-84.93
	c-0.04-5.63,1.58-7.82,6.44-6.76c0.74,2.77,2.32,5.65,2.08,8.31c-1.84,19.79-0.68,39.61-0.58,59.39
	C774.69,382.57,774.64,390.51,773.37,398.44z"/>
<path class="st2" d="M751.15,398.44c-4.28,0.67-5.65-1.24-5.6-6.28c0.22-25.97,0.1-51.94,0.1-77.92c0-7.64-1.61-15.28,0.02-22.92
	c4.37-0.82,5.6,1.27,5.57,6.22C751.07,331.18,751.15,364.81,751.15,398.44z"/>
<path class="st12" d="M907.92,339.28c1.76-3.22,3.52-6.43,5.29-9.65c4.76-1.18,6.92-6.16,10.75-9.72
	c1.74,5.36,3.39,10.38,4.98,15.43c1.47,4.66,2.86,9.32,5.26,13.57c1.8,3.18,0.99,5.07-2.73,4.33c-9.22-1.82-18.46-3.59-27.69-5.33
	c-2.11-0.4-2.63-1.47-1.08-3.24C904.36,342.78,906.18,341.07,907.92,339.28z"/>
<path class="st8" d="M773.37,398.44c1.27-7.93,1.31-15.86,1.27-23.95c-0.09-19.78-1.25-39.6,0.58-59.39
	c0.25-2.66-1.34-5.54-2.08-8.31c5.44-0.07,7.94,3.01,7.95,10.24c0.05,27.14,0.02,54.29,0.02,81.43
	C778.54,398.45,775.96,398.44,773.37,398.44z"/>
<path class="st13" d="M802.2,398.44c-1.87,0-3.74,0-5.61,0c0.01-23.07,0.2-46.15-0.07-69.22c-0.07-5.93,1.13-8.76,6.66-7.48
	c0.04,22.07,0.04,44.13,0.14,66.2C803.33,391.53,803.09,395.01,802.2,398.44z"/>
<path class="st8" d="M802.2,398.44c0.89-3.43,1.13-6.91,1.11-10.49c-0.1-22.07-0.1-44.14-0.14-66.2c5.54-1.27,6.95,1.63,6.89,7.58
	c-0.23,23.03-0.09,46.06-0.09,69.09C807.38,398.43,804.79,398.43,802.2,398.44z"/>
<path class="st2" d="M736.7,398.38c0,0.88,0,1.75,0,2.63c-4.58,0.38-9.09,1.36-13.73,1.26c-3.9-0.08-5.37-1.85-5.07-6.08
	c0.57-7.88-0.44-15.74-0.14-23.66c0.5-12.69,0.13-25.42,0.14-38.13c0.01-14.26,0.03-28.53,0.07-42.79c0-0.78,0.05-1.69,1.83-2.21
	c0.19,10.37,1.65,20.42,1.42,30.68c-0.22,9.91-0.18,19.84,0.15,29.74c0.18,5.35-1.55,10.32-1.32,15.74
	c0.42,10.07,2.32,20.15,0.41,30.27c-0.29,1.52,0.51,2.54,1.8,2.47c1.87-0.1,4.17,1.25,5.4-1.62c0.37-0.86,0.09-2.16,1.8-2.59
	C729.89,399.57,733.52,398.44,736.7,398.38z"/>
<path class="st2" d="M838.83,398.37c-1.16-0.17-3.25,0.4-2.82-1.72c2.85-13.94-3.08-27.33-1.74-41.2c0.64-6.58,0.1-13.31,0.09-19.97
	c3.89-0.76,4.54,1.58,4.52,5.4C838.76,360.04,838.83,379.21,838.83,398.37z"/>
<path class="st10" d="M521.95,546.08c0.02-3.94-2.48-8.48,2.1-11.32C523.35,538.53,522.65,542.31,521.95,546.08z"/>
<path class="st10" d="M524.89,533.05c0.37,0.04,0.74,0.09,1.11,0.13c-0.64,0.52-1.28,1.05-1.92,1.57
	C524.35,534.18,524.62,533.62,524.89,533.05z"/>
<path class="st10" d="M788.33,544.22c0.49,1.06,0.49,2.13,0,3.19C787.55,546.35,787.54,545.29,788.33,544.22z"/>
</svg>
